/* XPM */
static char * 0_xpm[] = {
"32 32 781 2",
"  	c #886040",
". 	c #8C6643",
"+ 	c #8C6544",
"@ 	c #8A6344",
"# 	c #785539",
"$ 	c #7E5538",
"% 	c #906549",
"& 	c #92684A",
"* 	c #926949",
"= 	c #815C3D",
"- 	c #66442E",
"; 	c #6D4D32",
"> 	c #845F42",
", 	c #835E41",
"' 	c #946B4B",
") 	c #936C45",
"! 	c #866143",
"~ 	c #815E42",
"{ 	c #6F4E36",
"] 	c #77553C",
"^ 	c #8B6746",
"/ 	c #8C6445",
"( 	c #7B5639",
"_ 	c #77553B",
": 	c #7F5D42",
"< 	c #845E41",
"[ 	c #755538",
"} 	c #6E4D35",
"| 	c #6A4B36",
"1 	c #7A563C",
"2 	c #775438",
"3 	c #785438",
"4 	c #7A5539",
"5 	c #7D5636",
"6 	c #B5825A",
"7 	c #B7855D",
"8 	c #B8865E",
"9 	c #9E704F",
"0 	c #78553C",
"a 	c #805A3D",
"b 	c #976C4A",
"c 	c #966B49",
"d 	c #976D4B",
"e 	c #966B4A",
"f 	c #7C573A",
"g 	c #573D2A",
"h 	c #61432F",
"i 	c #7A553B",
"j 	c #79563A",
"k 	c #795539",
"l 	c #61422C",
"m 	c #583B26",
"n 	c #583C26",
"o 	c #573C26",
"p 	c #664730",
"q 	c #7D5A39",
"r 	c #845D3E",
"s 	c #845C3C",
"t 	c #825C3E",
"u 	c #76563D",
"v 	c #7A563A",
"w 	c #AD7E58",
"x 	c #B2835D",
"y 	c #B4825B",
"z 	c #9F704E",
"A 	c #7B5B46",
"B 	c #7D5E48",
"C 	c #906A4B",
"D 	c #8E6849",
"E 	c #966C4B",
"F 	c #976C4B",
"G 	c #7E583B",
"H 	c #5D412C",
"I 	c #6A4931",
"J 	c #845C3F",
"K 	c #835B3C",
"L 	c #835C3E",
"M 	c #644530",
"N 	c #5E402B",
"O 	c #65462E",
"P 	c #674831",
"Q 	c #714F36",
"R 	c #9F714F",
"S 	c #B8845E",
"T 	c #B9845C",
"U 	c #AE7E58",
"V 	c #7B5638",
"W 	c #946846",
"X 	c #986B49",
"Y 	c #966C4A",
"Z 	c #927766",
"` 	c #888788",
" .	c #847C79",
"..	c #926948",
"+.	c #876142",
"@.	c #78563B",
"#.	c #8F6443",
"$.	c #BA855D",
"%.	c #B8855E",
"&.	c #875E42",
"*.	c #785339",
"=.	c #A17452",
"-.	c #BA865E",
";.	c #AE7D58",
">.	c #9D704D",
",.	c #BA835B",
"'.	c #B9835B",
").	c #AC7E59",
"!.	c #795437",
"~.	c #8F694B",
"{.	c #946C4E",
"].	c #956D4B",
"^.	c #917868",
"/.	c #878889",
"(.	c #857C76",
"_.	c #77563C",
":.	c #956C4B",
"<.	c #956A48",
"[.	c #966C4C",
"}.	c #8F6545",
"|.	c #875D42",
"1.	c #79553B",
"2.	c #A37451",
"3.	c #BA855E",
"4.	c #AF7C55",
"5.	c #8B6C55",
"6.	c #996F4A",
"7.	c #996E4B",
"8.	c #795436",
"9.	c #765439",
"0.	c #64462E",
"a.	c #5F422E",
"b.	c #866447",
"c.	c #8A6448",
"d.	c #785C49",
"e.	c #715540",
"f.	c #5C3F29",
"g.	c #624228",
"h.	c #926A4A",
"i.	c #865B3A",
"j.	c #7D573A",
"k.	c #7A573C",
"l.	c #78563A",
"m.	c #845E3F",
"n.	c #986E4D",
"o.	c #9A6F4A",
"p.	c #B17C58",
"q.	c #B3805B",
"r.	c #996B49",
"s.	c #815B40",
"t.	c #8C6141",
"u.	c #876D58",
"v.	c #976C48",
"w.	c #916845",
"x.	c #795338",
"y.	c #795438",
"z.	c #5B3E27",
"A.	c #583E2C",
"B.	c #886341",
"C.	c #976A46",
"D.	c #8D6143",
"E.	c #7A523D",
"F.	c #735138",
"G.	c #563D2A",
"H.	c #5C3F28",
"I.	c #936B4D",
"J.	c #976B4A",
"K.	c #7F5A40",
"L.	c #7B563C",
"M.	c #79563C",
"N.	c #78553B",
"O.	c #815B3E",
"P.	c #976C4C",
"Q.	c #946D4A",
"R.	c #976D48",
"S.	c #986B46",
"T.	c #B1815B",
"U.	c #BA865D",
"V.	c #986A49",
"W.	c #76543D",
"X.	c #835E3F",
"Y.	c #7E5C42",
"Z.	c #835C3D",
"`.	c #835B3D",
" +	c #825B3E",
".+	c #775439",
"++	c #6E4D32",
"@+	c #6D4E35",
"#+	c #7E593C",
"$+	c #946949",
"%+	c #A57855",
"&+	c #A57754",
"*+	c #A2734E",
"=+	c #9E704C",
"-+	c #855E41",
";+	c #865C3F",
">+	c #6B4B34",
",+	c #66452F",
"'+	c #7C573D",
")+	c #8D6548",
"!+	c #8B6245",
"~+	c #845D40",
"{+	c #855E3F",
"]+	c #A17250",
"^+	c #A2754E",
"/+	c #A27652",
"(+	c #A67751",
"_+	c #795638",
":+	c #79553C",
"<+	c #785638",
"[+	c #795538",
"}+	c #7A5739",
"|+	c #78533A",
"1+	c #78563E",
"2+	c #9A6F4F",
"3+	c #B88658",
"4+	c #B9855B",
"5+	c #B2825B",
"6+	c #7C563A",
"7+	c #5F422D",
"8+	c #5C3D28",
"9+	c #7F593D",
"0+	c #956A4A",
"a+	c #8F6546",
"b+	c #7A5438",
"c+	c #7C5638",
"d+	c #966B4B",
"e+	c #976A48",
"f+	c #956B45",
"g+	c #AA7C56",
"h+	c #BA8459",
"i+	c #A67750",
"j+	c #6E4F38",
"k+	c #6B4E38",
"l+	c #7E5A3C",
"m+	c #996B47",
"n+	c #8D6647",
"o+	c #6A4B33",
"p+	c #6D4B31",
"q+	c #7A5639",
"r+	c #926546",
"s+	c #966A49",
"t+	c #A07351",
"u+	c #AC7C53",
"v+	c #AD7A56",
"w+	c #A97A53",
"x+	c #A67A56",
"y+	c #73533A",
"z+	c #76543A",
"A+	c #805B3F",
"B+	c #896244",
"C+	c #7B5435",
"D+	c #77583E",
"E+	c #856347",
"F+	c #876447",
"G+	c #876346",
"H+	c #8A6243",
"I+	c #9E724E",
"J+	c #A77A56",
"K+	c #9C7250",
"L+	c #64452E",
"M+	c #573E29",
"N+	c #886348",
"O+	c #BB8558",
"P+	c #AA7C58",
"Q+	c #583D28",
"R+	c #593F2B",
"S+	c #76563C",
"T+	c #7A5439",
"U+	c #AA7A55",
"V+	c #BA855C",
"W+	c #AA7B55",
"X+	c #986B4D",
"Y+	c #966A46",
"Z+	c #936B49",
"`+	c #79563B",
" @	c #7B573A",
".@	c #916848",
"+@	c #855F41",
"@@	c #76543C",
"#@	c #735540",
"$@	c #745642",
"%@	c #77543E",
"&@	c #79533A",
"*@	c #8C6342",
"=@	c #956B4A",
"-@	c #946B49",
";@	c #69472C",
">@	c #5E422C",
",@	c #B07E57",
"'@	c #A27553",
")@	c #5A3C2A",
"!@	c #76553B",
"~@	c #9F7553",
"{@	c #B17E56",
"]@	c #A47652",
"^@	c #996E4C",
"/@	c #825A3C",
"(@	c #805839",
"_@	c #8E6443",
":@	c #906744",
"<@	c #825D40",
"[@	c #745037",
"}@	c #7A563F",
"|@	c #855F40",
"1@	c #865E3E",
"2@	c #765742",
"3@	c #755641",
"4@	c #72523A",
"5@	c #745238",
"6@	c #8A5F43",
"7@	c #906544",
"8@	c #7A583C",
"9@	c #75543B",
"0@	c #70523A",
"a@	c #573B25",
"b@	c #5B3C29",
"c@	c #76543B",
"d@	c #885E3D",
"e@	c #986D4B",
"f@	c #966D4A",
"g@	c #946B4C",
"h@	c #81583D",
"i@	c #795339",
"j@	c #6A4734",
"k@	c #583B2B",
"l@	c #7B573E",
"m@	c #BB875C",
"n@	c #B4835B",
"o@	c #7B5439",
"p@	c #7B543C",
"q@	c #63422B",
"r@	c #5A3D2A",
"s@	c #6E4C38",
"t@	c #79563D",
"u@	c #6D4D33",
"v@	c #78553A",
"w@	c #745136",
"x@	c #5C3D26",
"y@	c #5D3E2A",
"z@	c #795639",
"A@	c #8A6141",
"B@	c #956B4B",
"C@	c #956C48",
"D@	c #936B4A",
"E@	c #80583F",
"F@	c #694931",
"G@	c #5C3C26",
"H@	c #7F583D",
"I@	c #B7855C",
"J@	c #AF815E",
"K@	c #7D563D",
"L@	c #7C553D",
"M@	c #623F29",
"N@	c #593D2D",
"O@	c #714C35",
"P@	c #7A563B",
"Q@	c #6F4F34",
"R@	c #936A48",
"S@	c #936A4A",
"T@	c #886244",
"U@	c #78543A",
"V@	c #765238",
"W@	c #775337",
"X@	c #90684A",
"Y@	c #936A49",
"Z@	c #926A4B",
"`@	c #896142",
" #	c #7C5639",
".#	c #745338",
"+#	c #5C412C",
"@#	c #62432C",
"##	c #93694B",
"$#	c #956D49",
"%#	c #7E5A3E",
"&#	c #967051",
"*#	c #B1825C",
"=#	c #9A6F4D",
"-#	c #7C573C",
";#	c #755437",
">#	c #7E7470",
",#	c #848485",
"'#	c #867D75",
")#	c #946B48",
"!#	c #946A49",
"~#	c #775338",
"{#	c #916949",
"]#	c #976C49",
"^#	c #8C6343",
"/#	c #735136",
"(#	c #5E4029",
"_#	c #634229",
":#	c #966948",
"<#	c #986D46",
"[#	c #825A3B",
"}#	c #9D7250",
"|#	c #BA845A",
"1#	c #AD7D57",
"2#	c #916A4B",
"3#	c #956B48",
"4#	c #82593A",
"5#	c #7D5939",
"6#	c #83746E",
"7#	c #8B8785",
"8#	c #8B7D73",
"9#	c #78583B",
"0#	c #7A5538",
"a#	c #6F4D36",
"b#	c #5C3E29",
"c#	c #614129",
"d#	c #7B5538",
"e#	c #7B583D",
"f#	c #A77A54",
"g#	c #B5835A",
"h#	c #9B7150",
"i#	c #896243",
"j#	c #B3835E",
"k#	c #B4835E",
"l#	c #B88259",
"m#	c #B6845C",
"n#	c #9C714F",
"o#	c #966C49",
"p#	c #986E4A",
"q#	c #986B47",
"r#	c #906847",
"s#	c #7B5539",
"t#	c #7C563B",
"u#	c #7B5537",
"v#	c #AB7E59",
"w#	c #B4855D",
"x#	c #A57656",
"y#	c #936E4C",
"z#	c #946D4C",
"A#	c #7A5437",
"B#	c #6D4C36",
"C#	c #593C29",
"D#	c #5C4029",
"E#	c #AA7956",
"F#	c #BB845D",
"G#	c #9F724F",
"H#	c #7A573B",
"I#	c #8D6241",
"J#	c #BC865B",
"K#	c #BB865B",
"L#	c #BB855A",
"M#	c #B7845B",
"N#	c #9F714C",
"O#	c #966B48",
"P#	c #966D4B",
"Q#	c #916745",
"R#	c #7A5537",
"S#	c #AF7D5A",
"T#	c #BA845C",
"U#	c #A67550",
"V#	c #956D4D",
"W#	c #9D704F",
"X#	c #AB7B55",
"Y#	c #9E7252",
"Z#	c #8C6346",
"`#	c #876041",
" $	c #775539",
".$	c #A0724C",
"+$	c #866042",
"@$	c #60442E",
"#$	c #66462E",
"$$	c #755338",
"%$	c #77543A",
"&$	c #876245",
"*$	c #946B4A",
"=$	c #976D49",
"-$	c #7C5B3E",
";$	c #674931",
">$	c #6C4C32",
",$	c #77553A",
"'$	c #76553A",
")$	c #986E4B",
"!$	c #9F714B",
"~$	c #927D68",
"{$	c #8A8080",
"]$	c #817168",
"^$	c #A47756",
"/$	c #AB7C57",
"($	c #966C48",
"_$	c #926947",
":$	c #7B553B",
"<$	c #7A573A",
"[$	c #795537",
"}$	c #8D6846",
"|$	c #7E593D",
"1$	c #583C2A",
"2$	c #5A3B27",
"3$	c #593D2C",
"4$	c #5C3C29",
"5$	c #916645",
"6$	c #75563A",
"7$	c #583D2B",
"8$	c #61432C",
"9$	c #765739",
"0$	c #7B533A",
"a$	c #8F7B70",
"b$	c #878789",
"c$	c #787171",
"d$	c #976E4F",
"e$	c #9C6F4C",
"f$	c #956947",
"g$	c #896041",
"h$	c #845E42",
"i$	c #694833",
"j$	c #7C573B",
"k$	c #835F45",
"l$	c #956B4D",
"m$	c #8B6448",
"n$	c #6B4B35",
"o$	c #6E4B33",
"p$	c #996E4D",
"q$	c #9F714E",
"r$	c #8B6344",
"s$	c #785739",
"t$	c #6B4B33",
"u$	c #694930",
"v$	c #674A33",
"w$	c #6F4C37",
"x$	c #9E734D",
"y$	c #9C724F",
"z$	c #876042",
"A$	c #836A5B",
"B$	c #806E64",
"C$	c #76645A",
"D$	c #926B49",
"E$	c #79553A",
"F$	c #76563A",
"G$	c #5D3D2B",
"H$	c #5B3E2D",
"I$	c #593D29",
"J$	c #5A3E2A",
"K$	c #8D664A",
"L$	c #BB8459",
"M$	c #AD7D56",
"N$	c #7C5739",
"O$	c #B78359",
"P$	c #B88359",
"Q$	c #8D6240",
"R$	c #785537",
"S$	c #78563C",
"T$	c #705037",
"U$	c #5A3D27",
"V$	c #65462F",
"W$	c #B7855B",
"X$	c #865D3D",
"Y$	c #7C5537",
"Z$	c #7B563A",
"`$	c #936A4B",
" %	c #835B3E",
".%	c #815B3D",
"+%	c #805B3E",
"@%	c #684531",
"#%	c #63452E",
"$%	c #75543A",
"%%	c #7D5A3E",
"&%	c #966B4D",
"*%	c #B07F59",
"=%	c #A47751",
"-%	c #78543C",
";%	c #7D573C",
">%	c #AE7C56",
",%	c #AE7F5A",
"'%	c #83644D",
")%	c #725B4B",
"!%	c #806048",
"~%	c #8D6445",
"{%	c #64442B",
"]%	c #6C4B31",
"^%	c #AF7D57",
"/%	c #B07F58",
"(%	c #7E593B",
"_%	c #705036",
":%	c #805B3D",
"<%	c #976C47",
"[%	c #8C6547",
"}%	c #77543B",
"|%	c #7F593B",
"1%	c #A97954",
"2%	c #AD7A54",
"3%	c #946C4D",
"4%	c #8F6643",
"5%	c #78543B",
"6%	c #946948",
"7%	c #956B49",
"8%	c #776A63",
"9%	c #6C6B6A",
"0%	c #967C68",
"a%	c #BB865D",
"b%	c #A87A56",
"c%	c #7A593E",
"d%	c #976B48",
"e%	c #563C28",
"f%	c #6F4D32",
"g%	c #946C4B",
"h%	c #926A47",
"i%	c #856243",
"j%	c #78583C",
"k%	c #80593E",
"l%	c #8E6C4F",
"m%	c #8F6B4C",
"n%	c #7C563D",
"o%	c #7C533A",
"p%	c #A77853",
"q%	c #B4835C",
"r%	c #A57752",
"s%	c #8C6444",
"t%	c #956C46",
"u%	c #756A63",
"v%	c #6C6867",
"w%	c #957760",
"x%	c #B88156",
"y%	c #A77954",
"z%	c #7E5A3D",
"A%	c #825C3F",
"B%	c #916746",
"C%	c #906846",
"D%	c #694B32",
"E%	c #63432B",
"F%	c #714E32",
"G%	c #906848",
"H%	c #725136",
"I%	c #593D27",
"J%	c #654831",
"K%	c #79573C",
"L%	c #795747",
"M%	c #6E6B6A",
"N%	c #706B69",
"O%	c #7B553A",
"P%	c #936745",
"Q%	c #9A6C47",
"R%	c #7F5A3F",
"S%	c #5A3E2B",
"T%	c #63442D",
"U%	c #926B4D",
"V%	c #966D45",
"W%	c #7F5B3E",
"X%	c #886346",
"Y%	c #A1734F",
"Z%	c #B18059",
"`%	c #5B3E29",
" &	c #88644A",
".&	c #936C49",
"+&	c #836043",
"@&	c #775437",
"#&	c #705139",
"$&	c #5B3D28",
"%&	c #69472F",
"&&	c #7A553A",
"*&	c #775849",
"=&	c #6E6C6E",
"-&	c #6E696A",
";&	c #775740",
">&	c #8E6546",
",&	c #976D4C",
"'&	c #7D5941",
")&	c #593B28",
"!&	c #64432C",
"~&	c #946B4D",
"{&	c #815B41",
"]&	c #8A6345",
"^&	c #996C49",
"/&	c #A3724C",
"(&	c #B9855D",
"_&	c #B0805A",
":&	c #593E29",
"<&	c #5A3D25",
"[&	c #986D4D",
"}&	c #77563B",
"|&	c #785538",
"1&	c #6D503B",
"2&	c #735038",
"3&	c #75533A",
"4&	c #72523C",
"5&	c #5C473A",
"6&	c #5D4638",
"7&	c #7F573B",
"8&	c #7E573B",
"9&	c #74543B",
"0&	c #835F43",
"a&	c #AF7E57",
"b&	c #80593F",
"c&	c #664530",
"d&	c #614029",
"e&	c #805A3F",
"f&	c #9A6C49",
"g&	c #9A6D49",
"h&	c #9D704C",
"i&	c #9B6E4A",
"j&	c #735239",
"k&	c #725238",
"l&	c #7B563D",
"m&	c #5F4130",
"n&	c #5E3E2A",
"o&	c #7A5337",
"p&	c #745137",
"q&	c #593C28",
"r&	c #593E2C",
"s&	c #785338",
"t&	c #7A563D",
"u&	c #8A6343",
"v&	c #BA855A",
"w&	c #B4825A",
"x&	c #7E583D",
"y&	c #7B563B",
"z&	c #60422E",
"A&	c #7B5941",
"B&	c #936949",
"C&	c #906747",
"D&	c #75533B",
"E&	c #583F2D",
"F&	c #825E42",
"G&	c #8D6446",
"H&	c #A37551",
"I&	c #9E7452",
"J&	c #996F4F",
"K&	c #956F52",
"L&	c #7A5840",
"M&	c #795337",
"N&	c #855F42",
"O&	c #835D41",
"P&	c #A37653",
"Q&	c #A47854",
"R&	c #A07553",
"S&	c #A2744F",
"T&	c #6A4D36",
"U&	c #715037",
"V&	c #836141",
"W&	c #7F6245",
"X&	c #82756D",
"Y&	c #84746E",
"Z&	c #876347",
"`&	c #865E3F",
" *	c #775238",
".*	c #6E4C34",
"+*	c #7E5B3E",
"@*	c #956C4D",
"#*	c #B9855C",
"$*	c #B6865D",
"%*	c #7F5C3C",
"&*	c #785435",
"**	c #8D6749",
"=*	c #886343",
"-*	c #7F593E",
";*	c #996D4A",
">*	c #B7865F",
",*	c #B98257",
"'*	c #765337",
")*	c #5A3D29",
"!*	c #6C4B32",
"~*	c #775536",
"{*	c #795A47",
"]*	c #858482",
"^*	c #868886",
"/*	c #7A5F4B",
"(*	c #785940",
"_*	c #926848",
":*	c #876144",
"<*	c #714D33",
"[*	c #8C6447",
"}*	c #AC7D58",
"|*	c #AC7A55",
"1*	c #8D6444",
"2*	c #886344",
"3*	c #846043",
"4*	c #886145",
"5*	c #986C49",
"6*	c #9A6D4A",
"7*	c #B5855E",
"8*	c #664731",
"9*	c #7F5C40",
"0*	c #916946",
"a*	c #916948",
"b*	c #926B4E",
"c*	c #8F7D72",
"d*	c #8C7C71",
"e*	c #866449",
"f*	c #7C5939",
"  . . + @ # $ % & * * = - ; > , ' ) ! ~ # { ] ^ / ( _ : < [ } | ",
"1 # # 2 3 4 5 6 7 8 8 9 0 a b b c b d e f g h i j j k l m n o p ",
"q r r s t u v w x y y z A B C D E b b F G H I J K K L M N O P Q ",
"R S S T U V k W X c Y Z `  .3 V ..b b b +.@.#.$.S S %.&.*.=.-.;.",
">.,.'.T ).!.v ~.{.].Y ^./.(._.v :.b <.[.> # }.%.'.'.%.|.1.2.3.4.",
"5.6.6.7.' 8.9.0.a.b.Y c.d.e.f.g.h.c i.j.k.l.m.n.6.6.o.p.q.r.s.t.",
"u.d d v.w.x.y.z.A.B.C.D.E.F.G.H.I.J.K.L.M.N.O.P.Q.R.S.T.U.V.W.X.",
"Y.Z.Z.`. +.+k ++@+#+r $+%+&+*+=+-+;+>+,+'+)+!+~+{+c r.]+^+/+(+o.",
"_.y._+:+N.<+[+3 }+|+1+2+3+'.4+5+6+L.7+8+9+0+a+b+c+d+V.e+f+g+h+i+",
"j+k+l+m+n+o+p+2 q+r+s+t+u+v+w+x+j.@.y+z+A+B+{+C+D+E+F+G+H+I+J+K+",
"L+M+N+O+P+Q+R+S+T+U+V+W+X+Y Y+Z+`+ @.@E +@v j j @@#@$@%@&@*@=@-@",
";@>@< ,@'@n )@!@!.~@{@]@e ^@b Y /@(@_@:@<@[@}@|@1@2@3@4@5@6@$+7@",
"j [+8@9@0@a@b@c@l.S+q+d@e@b c e@f@g@h@i@j@k@l@m@n@o@p@q@r@s@t@u@",
"# v@# y.w@x@y@_ [+z@v@A@E :.B@=@C@D@E@z@F@G@H@I@J@K@L@M@N@O@P@Q@",
"R@S@T@`+U@V@W@X@Y@h.Z@`@ #.#+#@###$#%#S+&#*#P+7.=#<.& -#;#>#,#'#",
")#!#B+~#U@U@ @{#e 7.]#^#V /#(#_#:#<#[#v }#|#1#2#3#3#F 4#5#6#7#8#",
"9#0#a#b#c#d#@.e#V f#g#h#@.i#j#k#l#m#n#o#p#q#r#_ s#t#u#v#w#x#y#z#",
"A#[+B#C#D#!@j j k E#F#G#H#I#J#K#L#M#N#O#D@P#Q#R#j j b+S#T#U#V#E ",
"W#X#Y#Z#`#( v j  $Z+.$+$@$#$$$%$&$B+*$=$-$;$>$,$l.j '$)$!$~${$]$",
"^$h+/$($_$:$P@<$[$}$C@|$1$2$3$4$y.,$5$b 6$7$8$,$9$0$_ * !#a$b$c$",
"d$e$f$g$h$l.9$F@i$9@j$k$l$m$n$o$p$q$r$+.s$t$u$v$w$x$y$i#z$A$B$C$",
"D$M..+j E$'$F$G$H$I$J$K$L$M$ $N$O$P$Q$0#R$S$T$U$V$W$V+X$0#d#Y$Z$",
"`$ %%#,$k .%+%@%#%$%%%&%*%=%-%;%>%,%'%)%!%~%<@{%]%^%/%(%_%2 j :%",
"[.<%[%}%|%q#Y ;%[$1%L#2%3%4%5%s#6%7%8%9%0%a%b%@.c%d%:.0.e%f%j g%",
"R@h%i%j%k%l%m%n%o%p%q%r%C s%j H#d+t%u%v%w%x%y%z%A%B%C%D%E%F%H#G%",
"H%I%J%K%L%M%N%2@O%P%Q%R%S%T%H#H#U%V%W%!@X%P#Y%P$Z%H.`% &.&+&# @&",
"#&$&%&&&*&=&-&;&4 >&,&'&)&!&0#j ~&F {&N.]&^&/&(&_&:&<&+ [&> }&|&",
"1&2&3&:+4&5&6&U@O%7&8&] 9&0&a&P+b&h@c&d&e&f&g&h&i&j&k&{#=@l&m&n&",
"; T+T+o&p&q&r&s&1 5%t&# # u&v&w&x&y&z&q&A&P.E E B&.+# C&E D&E&q&",
"F&O%G&H&I&J&K&L&M&N&^#= v O&P&Q&R&S&T&C#U&V&+&+&W&X&Y&Z&`& *.*+*",
"W O%@*(&#*U.$*%*&***e =*2 -*d%;*>*,*'*)*!*~*j j {*]*^*/*(*|&# _*",
":*<*[*U }*}*|*x&1 ! 1*2*3*4*5*6*7*4+|$8*9*0*a** b*c*d*e*< f*_+H+"};
