/* XPM */
static char * 1_xpm[] = {
"32 32 419 2",
"  	c #976C4A",
". 	c #725239",
"+ 	c #583C2A",
"@ 	c #73543A",
"# 	c #966C49",
"$ 	c #946C4A",
"% 	c #7B5940",
"& 	c #795A3F",
"* 	c #775D45",
"= 	c #775D46",
"- 	c #7F634B",
"; 	c #846A53",
"> 	c #7F6A54",
", 	c #786A57",
"' 	c #746C5A",
") 	c #77705E",
"! 	c #867660",
"~ 	c #836F59",
"{ 	c #7B624A",
"] 	c #9A7251",
"^ 	c #B8835B",
"/ 	c #B9855B",
"( 	c #B4835C",
"_ 	c #966D4D",
": 	c #986C4A",
"< 	c #976B49",
"[ 	c #946B47",
"} 	c #846144",
"| 	c #79563A",
"1 	c #865F40",
"2 	c #815D40",
"3 	c #825A3E",
"4 	c #896244",
"5 	c #946B4A",
"6 	c #906949",
"7 	c #845E41",
"8 	c #846248",
"9 	c #75604C",
"0 	c #736553",
"a 	c #726856",
"b 	c #716958",
"c 	c #726C5A",
"d 	c #736D5B",
"e 	c #726D5C",
"f 	c #726B5A",
"g 	c #746B5A",
"h 	c #766F5D",
"i 	c #79715F",
"j 	c #7D6E5A",
"k 	c #896D53",
"l 	c #946E4F",
"m 	c #A27651",
"n 	c #A17451",
"o 	c #886040",
"p 	c #855E3E",
"q 	c #926B4B",
"r 	c #966B4C",
"s 	c #855F41",
"t 	c #7B563A",
"u 	c #795437",
"v 	c #8C6444",
"w 	c #956B49",
"x 	c #956A49",
"y 	c #956B4A",
"z 	c #8F6849",
"A 	c #77573D",
"B 	c #74614D",
"C 	c #726756",
"D 	c #716B5A",
"E 	c #736E5D",
"F 	c #736F5E",
"G 	c #73705F",
"H 	c #726E5D",
"I 	c #716A59",
"J 	c #736C5B",
"K 	c #736D5C",
"L 	c #746E5D",
"M 	c #7A6D5A",
"N 	c #8E7053",
"O 	c #926C4D",
"P 	c #785437",
"Q 	c #785336",
"R 	c #936847",
"S 	c #976A46",
"T 	c #84603C",
"U 	c #7A5737",
"V 	c #7A5638",
"W 	c #8C6643",
"X 	c #8C6544",
"Y 	c #8A6344",
"Z 	c #765A42",
"` 	c #736654",
" .	c #747160",
"..	c #7B705C",
"+.	c #88694F",
"@.	c #7B573B",
"#.	c #77553B",
"$.	c #7F5D42",
"%.	c #755538",
"&.	c #6E4D35",
"*.	c #795636",
"=.	c #7A563C",
"-.	c #785539",
";.	c #775438",
">.	c #78563B",
",.	c #765F49",
"'.	c #726957",
").	c #726C5B",
"!.	c #706958",
"~.	c #7A6C59",
"{.	c #7A5C43",
"].	c #795539",
"^.	c #61422C",
"/.	c #583B26",
"(.	c #583C26",
"_.	c #573C26",
":.	c #755138",
"<.	c #7D5A39",
"[.	c #845D3E",
"}.	c #845C3C",
"|.	c #7F5F44",
"1.	c #726653",
"2.	c #6F6958",
"3.	c #6C6859",
"4.	c #6F6858",
"5.	c #737160",
"6.	c #806851",
"7.	c #835E41",
"8.	c #644530",
"9.	c #5E402B",
"0.	c #65462E",
"a.	c #674831",
"b.	c #5B3C26",
"c.	c #9F714F",
"d.	c #B8845E",
"e.	c #B4825C",
"f.	c #937458",
"g.	c #736957",
"h.	c #6B675A",
"i.	c #69665A",
"j.	c #756F5E",
"k.	c #8B7862",
"l.	c #AE8360",
"m.	c #875E43",
"n.	c #785339",
"o.	c #A17452",
"p.	c #BA865E",
"q.	c #583E2A",
"r.	c #9D704D",
"s.	c #BA835B",
"t.	c #B7825B",
"u.	c #A77D5B",
"v.	c #7D6D58",
"w.	c #6A675A",
"x.	c #68665A",
"y.	c #7B6F5C",
"z.	c #9C7D61",
"A.	c #865F46",
"B.	c #79553B",
"C.	c #A37451",
"D.	c #BA855E",
"E.	c #6F6863",
"F.	c #8B6C55",
"G.	c #996F4A",
"H.	c #926E4D",
"I.	c #7F6B54",
"J.	c #726958",
"K.	c #726C5C",
"L.	c #6E6858",
"M.	c #6C6759",
"N.	c #6E6859",
"O.	c #726A59",
"P.	c #7C6E5A",
"Q.	c #A4795A",
"R.	c #B2805B",
"S.	c #996B49",
"T.	c #815B40",
"U.	c #696C6E",
"V.	c #876D58",
"W.	c #826A53",
"X.	c #746957",
"Y.	c #736A58",
"Z.	c #8F755C",
"`.	c #B3845D",
" +	c #986A49",
".+	c #76543D",
"++	c #725C4C",
"@+	c #7D5D44",
"#+	c #79614B",
"$+	c #726855",
"%+	c #796C59",
"&+	c #947353",
"*+	c #A07653",
"=+	c #A67751",
"-+	c #795639",
";+	c #745A45",
">+	c #6E6455",
",+	c #816C54",
"'+	c #A57B57",
")+	c #BA8459",
"!+	c #76593D",
"~+	c #6B5D4E",
"{+	c #696659",
"]+	c #6B6759",
"^+	c #6D6859",
"/+	c #776956",
"(+	c #977151",
"_+	c #A77A56",
":+	c #735B45",
"<+	c #676255",
"[+	c #73715F",
"}+	c #726857",
"|+	c #83674D",
"1+	c #946B4B",
"2+	c #6E6050",
"3+	c #686458",
"4+	c #7D6854",
"5+	c #916A4C",
"6+	c #666153",
"7+	c #666458",
"8+	c #646356",
"9+	c #676457",
"0+	c #6A665A",
"a+	c #746857",
"b+	c #7A5D47",
"c+	c #5B584B",
"d+	c #5B594D",
"e+	c #585649",
"f+	c #5D5B4E",
"g+	c #6A6657",
"h+	c #706858",
"i+	c #6A6759",
"j+	c #736A59",
"k+	c #7B6752",
"l+	c #5B5445",
"m+	c #555245",
"n+	c #545245",
"o+	c #676558",
"p+	c #736B5B",
"q+	c #7A776C",
"r+	c #685844",
"s+	c #575244",
"t+	c #676458",
"u+	c #746E5E",
"v+	c #66523E",
"w+	c #565143",
"x+	c #535144",
"y+	c #656357",
"z+	c #6E523A",
"A+	c #585041",
"B+	c #575548",
"C+	c #6D6759",
"D+	c #6E6757",
"E+	c #74533B",
"F+	c #695743",
"G+	c #555244",
"H+	c #5A584B",
"I+	c #6F6859",
"J+	c #716A5A",
"K+	c #706959",
"L+	c #75533A",
"M+	c #7C6048",
"N+	c #5D5445",
"O+	c #5C5A4E",
"P+	c #6E6959",
"Q+	c #6E6A5A",
"R+	c #6E685A",
"S+	c #6D685B",
"T+	c #9D704C",
"U+	c #846349",
"V+	c #5E5342",
"W+	c #676559",
"X+	c #686558",
"Y+	c #656255",
"Z+	c #686559",
"`+	c #6C655A",
" @	c #B88559",
".@	c #8B6747",
"+@	c #5D4F3F",
"@@	c #5B584C",
"#@	c #656356",
"$@	c #5E5C50",
"%@	c #59574B",
"&@	c #5F5D51",
"*@	c #5E5B4E",
"=@	c #645A4B",
"-@	c #715742",
";@	c #B07F58",
">@	c #91694A",
",@	c #72563F",
"'@	c #5D5647",
")@	c #636155",
"!@	c #646256",
"~@	c #626054",
"{@	c #605E53",
"]@	c #5A584C",
"^@	c #565447",
"/@	c #555347",
"(@	c #5A574B",
"_@	c #5E584A",
":@	c #615444",
"<@	c #6F543D",
"[@	c #77563B",
"}@	c #986B48",
"|@	c #966C4C",
"1@	c #906946",
"2@	c #6E5A46",
"3@	c #5B574A",
"4@	c #5C5A4D",
"5@	c #605E52",
"6@	c #545246",
"7@	c #545144",
"8@	c #605545",
"9@	c #5B4C3B",
"0@	c #56412F",
"a@	c #6E4D33",
"b@	c #9A6D49",
"c@	c #936A48",
"d@	c #916A47",
"e@	c #7C5F43",
"f@	c #615544",
"g@	c #595548",
"h@	c #615F53",
"i@	c #5B594C",
"j@	c #555143",
"k@	c #615241",
"l@	c #7A5D43",
"m@	c #664B33",
"n@	c #63432B",
"o@	c #714E32",
"p@	c #7A573B",
"q@	c #986D4B",
"r@	c #725136",
"s@	c #593D27",
"t@	c #644832",
"u@	c #71563F",
"v@	c #605345",
"w@	c #565348",
"x@	c #555346",
"y@	c #5D5B4F",
"z@	c #5F5D52",
"A@	c #575549",
"B@	c #655846",
"C@	c #7F654B",
"D@	c #58422E",
"E@	c #5A3E2A",
"F@	c #88644A",
"G@	c #936C49",
"H@	c #836043",
"I@	c #705139",
"J@	c #5B3D28",
"K@	c #69472F",
"L@	c #79553A",
"M@	c #715647",
"N@	c #5E5C59",
"O@	c #56544A",
"P@	c #575346",
"Q@	c #58564A",
"R@	c #565448",
"S@	c #575345",
"T@	c #5D5444",
"U@	c #6E5843",
"V@	c #9A7252",
"W@	c #A77B57",
"X@	c #593E2A",
"Y@	c #5A3D25",
"Z@	c #986D4D",
"`@	c #845F42",
" #	c #66472D",
".#	c #6D503B",
"+#	c #735038",
"@#	c #79553C",
"##	c #72523C",
"$#	c #5A473A",
"%#	c #59473A",
"&#	c #645240",
"*#	c #5E5647",
"=#	c #5E594C",
"-#	c #5C594D",
";#	c #5D584B",
">#	c #605A4C",
",#	c #5D574A",
"'#	c #5D5548",
")#	c #585143",
"!#	c #554C3E",
"~#	c #826045",
"{#	c #916847",
"]#	c #9A6E4B",
"^#	c #9B6E4A",
"/#	c #735239",
"(#	c #725238",
"_#	c #916949",
":#	c #7B563D",
"<#	c #5F4130",
"[#	c #583C29",
"}#	c #6D4D32",
"|#	c #7A5439",
"1#	c #7A5337",
"2#	c #745137",
"3#	c #593C28",
"4#	c #593E2C",
"5#	c #755339",
"6#	c #725640",
"7#	c #685746",
"8#	c #61594B",
"9#	c #74604B",
"0#	c #80664E",
"a#	c #6C5542",
"b#	c #6F553F",
"c#	c #5D4533",
"d#	c #583F2C",
"e#	c #775841",
"f#	c #946A4B",
"g#	c #966C4B",
"h#	c #936949",
"i#	c #775439",
"j#	c #906747",
"k#	c #75533B",
"l#	c #583F2D",
"  . + @ #     $ % & * = - ; > , ' ) ! ~ { ] ^ / / ( _ : < [ } | ",
"1 2 3 4 5 6 7 8 9 0 a a a b c d e f g h i j k l m n o p q r s t ",
"u v w x y z A B C D e E F G G H D b b I J K L M N O P Q R S T U ",
"V o W W X Y Z ` I H G G G G e D b b b b b D G  ...+.@.#.$.7 %.&.",
"*.=.-.-.;.>.,.'.).F H e ).D I b b b b !.b I H G  .~.{.].^./.(._.",
":.<.[.[.}.|.1.c e ).I I D D b b b b 2.3.4.b I H 5.) 6.7.8.9.0.a.",
"b.c.d.d.e.f.g.D I b b D H D b b b !.h.i.h.!.b I e j.k.l.m.n.o.p.",
"q.r.s.t.u.v.b b b b I H H I b b b !.w.x.w.!.b I D I y.z.A.B.C.D.",
"E.F.G.H.I.J.b b b b I K.D b b b b b L.M.N.b D H E I O.P.Q.R.S.T.",
"U.V.O W.X.b b b b b b b b b b b b b b !.b I H G G e I Y.Z.`. +.+",
"++@+#+$+b b b b b b b b b b b b b b b b b D G 5.5.G I b %+&+*+=+",
"-+;+>+!.b b b b !.!.b b b b b b b b b b b I F 5.5.G ).b Y.,+'+)+",
"!+~+{+2.b b b N.]+^+!.b b b b b b b b b b I e G 5.G ).b b /+(+_+",
":+<+i.N.b b b N.i.w.!.b b b b b b b b b b b D E [+G D b b }+|+1+",
"2+3+i.^+!.b b N.i.i.4.!.N.N.!.b b b b b b b b I E E I b b b 4+5+",
"6+7+8+9+4.b b 2.]+M.M.0+i.i.M.2.b b b b b b b b D ).I b b O.a+b+",
"c+d+e+f+g+2.b b !.h+M.i.x.x.x.i+!.b b b b b b b b b b b b b j+k+",
"l+m+n+d+o+^+b b b !.M.i.x.x.x.h.!.b b b b b b b b b b b b b p+q+",
"r+s+n+d+t+M.!.b b b L.i.i.i.h.L.b b b b b b b b 4.!.b b b b I u+",
"v+w+x+e+y+0+4.b b b !.M.M.^+!.b b b b b b b b L.w.]+!.b I I b 2.",
"z+A+x+B+y+i.M.!.b b b !.!.!.b b b b b b b b b C+w.M.!.I e H I D+",
"E+F+G+H+7+x.i.]+!.b b b b b b b b b b b b b b !.I+!.b J+H K.K+2.",
"L+M+N+O+7+x.x.i.4.!.!.b b b b b b !.b b b b !.b !.!.4.P+Q+R+h.S+",
"T+U+V+O+W+x.x.i.M.M.M.4.!.b b !.^+h.^+!.2.^+M.^+M.X+Y+o+Z+o+t+`+",
" @.@+@@@y+x.x.x.x.x.i.0+h.N.4.M.i.x.0+i+{+x.Z+Z+#@$@%@$@&@*@=@-@",
";@>@,@'@&@)@!@7+x.x.x.x.x.i.0+i.x.x.x.o+!@)@~@{@]@^@/@(@_@:@<@[@",
"}@|@1@2@3@4@O+&@!@W+W+W+x.x.x.x.x.x.7+5@4@4@d+%@6@x+7@8@9@0@a@| ",
"b@c@d@e@f@g@B+%@$@)@~@)@7+x.x.W+W+7+h@i@e+e+^@n+x+j@k@l@m@n@o@p@",
"q@r@s@t@u@v@w@x@H+O+O+y@z@!@y+~@h@&@d+e+e+A@n+j@B@C@D@E@F@G@H@-.",
"$ I@J@K@L@M@N@O@P@%@d+d+O+y@$@O+O+d+Q@e+R@S@T@U@V@W@X@Y@X Z@`@[@",
" #.#+#L+@###$#%#&#*#=#-#d+d+@@;#>#,#'#)#!#&#~#{#]#^#/#(#_#y :#<#",
"[#}#|#|#1#2#3#4#5#6#7#8#-#(@*#9#0#a#b#c#d#e#f#g#g#h#i#-.j#g#k#l#"};
