/* XPM */
static char * c_xpm[] = {
"32 32 899 2",
"  	c #886040",
". 	c #8C6643",
"+ 	c #8C6544",
"@ 	c #8A6344",
"# 	c #785539",
"$ 	c #7E5538",
"% 	c #906549",
"& 	c #92684A",
"* 	c #926949",
"= 	c #815C3D",
"- 	c #66442E",
"; 	c #6D4D32",
"> 	c #845F42",
", 	c #835E41",
"' 	c #946B4B",
") 	c #936C45",
"! 	c #866143",
"~ 	c #815E42",
"{ 	c #6F4E36",
"] 	c #77553C",
"^ 	c #8B6746",
"/ 	c #8C6445",
"( 	c #7B5639",
"_ 	c #77553B",
": 	c #7F5D42",
"< 	c #845E41",
"[ 	c #755538",
"} 	c #6E4D35",
"| 	c #6A4B36",
"1 	c #7A563C",
"2 	c #775438",
"3 	c #785438",
"4 	c #7A5539",
"5 	c #7D5636",
"6 	c #B5825A",
"7 	c #B7855D",
"8 	c #B8865E",
"9 	c #9E704F",
"0 	c #78553C",
"a 	c #805A3D",
"b 	c #976C4A",
"c 	c #966B49",
"d 	c #976D4B",
"e 	c #966B4A",
"f 	c #7C573A",
"g 	c #573D2A",
"h 	c #61432F",
"i 	c #7A553B",
"j 	c #79563A",
"k 	c #795539",
"l 	c #61422C",
"m 	c #583B26",
"n 	c #583C26",
"o 	c #573C26",
"p 	c #664730",
"q 	c #7D5A39",
"r 	c #845D3E",
"s 	c #845C3C",
"t 	c #825C3E",
"u 	c #76563D",
"v 	c #7A563A",
"w 	c #AD7E58",
"x 	c #B2835D",
"y 	c #B4825B",
"z 	c #9F704E",
"A 	c #7B5B46",
"B 	c #7D5E48",
"C 	c #906A4B",
"D 	c #8E6849",
"E 	c #966C4B",
"F 	c #976C4B",
"G 	c #7E583B",
"H 	c #5D412C",
"I 	c #6A4931",
"J 	c #845C3F",
"K 	c #835B3C",
"L 	c #835C3E",
"M 	c #644530",
"N 	c #5E402B",
"O 	c #65462E",
"P 	c #674831",
"Q 	c #714F36",
"R 	c #9F714F",
"S 	c #B8845E",
"T 	c #B9845C",
"U 	c #AE7E58",
"V 	c #7B5638",
"W 	c #946846",
"X 	c #986B49",
"Y 	c #966C4A",
"Z 	c #927766",
"` 	c #888788",
" .	c #847C79",
"..	c #926948",
"+.	c #876142",
"@.	c #78563B",
"#.	c #8F6443",
"$.	c #BA855D",
"%.	c #B8855E",
"&.	c #875E42",
"*.	c #785339",
"=.	c #A17452",
"-.	c #BA865E",
";.	c #AE7D58",
">.	c #9D704D",
",.	c #BA835B",
"'.	c #B9835B",
").	c #AC7E59",
"!.	c #795437",
"~.	c #8F694B",
"{.	c #946C4E",
"].	c #956D4B",
"^.	c #917868",
"/.	c #878889",
"(.	c #857C76",
"_.	c #77563C",
":.	c #956C4B",
"<.	c #956A48",
"[.	c #966C4C",
"}.	c #8F6545",
"|.	c #875D42",
"1.	c #79553B",
"2.	c #A37451",
"3.	c #BA855E",
"4.	c #AF7C55",
"5.	c #8B6C55",
"6.	c #996F4A",
"7.	c #996E4B",
"8.	c #795436",
"9.	c #765439",
"0.	c #64462E",
"a.	c #5F422E",
"b.	c #866447",
"c.	c #8A6448",
"d.	c #785C49",
"e.	c #715540",
"f.	c #5C3F29",
"g.	c #624228",
"h.	c #926A4A",
"i.	c #865B3A",
"j.	c #7D573A",
"k.	c #7A573C",
"l.	c #78563A",
"m.	c #845E3F",
"n.	c #986E4D",
"o.	c #9A6F4A",
"p.	c #B17C58",
"q.	c #B3805B",
"r.	c #996B49",
"s.	c #815B40",
"t.	c #8C6141",
"u.	c #876D58",
"v.	c #976C48",
"w.	c #916845",
"x.	c #795338",
"y.	c #60432A",
"z.	c #644A32",
"A.	c #8F6B45",
"B.	c #9A6E49",
"C.	c #8F6445",
"D.	c #7B543E",
"E.	c #745138",
"F.	c #563D2A",
"G.	c #5C3F28",
"H.	c #936B4D",
"I.	c #976B4A",
"J.	c #7F5A40",
"K.	c #7B563C",
"L.	c #79563C",
"M.	c #78553B",
"N.	c #815B3E",
"O.	c #976C4C",
"P.	c #946D4A",
"Q.	c #976D48",
"R.	c #986B46",
"S.	c #B1815B",
"T.	c #BA865D",
"U.	c #986A49",
"V.	c #76543D",
"W.	c #835E3F",
"X.	c #7E5C42",
"Y.	c #835C3D",
"Z.	c #835B3D",
"`.	c #825B3E",
" +	c #7A573A",
".+	c #85623E",
"++	c #8F7347",
"@+	c #A28B5C",
"#+	c #B09769",
"$+	c #AA8F65",
"%+	c #AA885F",
"&+	c #B0875C",
"*+	c #AA7D56",
"=+	c #A47650",
"-+	c #9F724D",
";+	c #865F41",
">+	c #865C3F",
",+	c #6B4B34",
"'+	c #66452F",
")+	c #7C573D",
"!+	c #8D6548",
"~+	c #8B6245",
"{+	c #845D40",
"]+	c #855E3F",
"^+	c #A17250",
"/+	c #A2754E",
"(+	c #A27652",
"_+	c #A67751",
":+	c #795438",
"<+	c #795638",
"[+	c #79553C",
"}+	c #7D5A3C",
"|+	c #906E40",
"1+	c #AD8A4D",
"2+	c #CDAF66",
"3+	c #E3D089",
"4+	c #E9DB9D",
"5+	c #E3D399",
"6+	c #DCC58B",
"7+	c #D9B97C",
"8+	c #CFA870",
"9+	c #C89D68",
"0+	c #BD9161",
"a+	c #8A653F",
"b+	c #815C3E",
"c+	c #63462E",
"d+	c #5E3F28",
"e+	c #7F593D",
"f+	c #956A4A",
"g+	c #8F6546",
"h+	c #7A5438",
"i+	c #7C5638",
"j+	c #966B4B",
"k+	c #976A48",
"l+	c #956B45",
"m+	c #AA7C56",
"n+	c #BA8459",
"o+	c #A67750",
"p+	c #6E4F38",
"q+	c #6B4E38",
"r+	c #7E5A3C",
"s+	c #9A6D48",
"t+	c #9E794F",
"u+	c #B89757",
"v+	c #DAB561",
"w+	c #ECC868",
"x+	c #F6D87C",
"y+	c #F8E18D",
"z+	c #F9E496",
"A+	c #F7E39A",
"B+	c #F4DF99",
"C+	c #EFD791",
"D+	c #E6CA82",
"E+	c #D9B872",
"F+	c #BB9A59",
"G+	c #A7864E",
"H+	c #967645",
"I+	c #8B683E",
"J+	c #896340",
"K+	c #87603F",
"L+	c #7C5435",
"M+	c #77583E",
"N+	c #856347",
"O+	c #876447",
"P+	c #876346",
"Q+	c #8A6243",
"R+	c #9E724E",
"S+	c #A77A56",
"T+	c #9C7250",
"U+	c #64452E",
"V+	c #573E29",
"W+	c #886348",
"X+	c #BD895A",
"Y+	c #C19B67",
"Z+	c #D8BE76",
"`+	c #EDD182",
" @	c #EFCE79",
".@	c #F0CA70",
"+@	c #F2CB6D",
"@@	c #F4CE70",
"#@	c #F6D378",
"$@	c #F7D77F",
"%@	c #F8DB82",
"&@	c #F7DA82",
"*@	c #F3D680",
"=@	c #EDCF79",
"-@	c #E5C46C",
";@	c #CCA456",
">@	c #B48D49",
",@	c #9F7A40",
"'@	c #936E3D",
")@	c #88623A",
"!@	c #765740",
"~@	c #755742",
"{@	c #77543E",
"]@	c #79533A",
"^@	c #8C6342",
"/@	c #956B4A",
"(@	c #946B49",
"_@	c #69472C",
":@	c #5E422C",
"<@	c #855F42",
"[@	c #B6875B",
"}@	c #C7A467",
"|@	c #E5CF78",
"1@	c #F6E48C",
"2@	c #F7E592",
"3@	c #F4DF8C",
"4@	c #F1D67F",
"5@	c #EECB70",
"6@	c #ECC464",
"7@	c #EDC25F",
"8@	c #EFC45F",
"9@	c #F2C864",
"0@	c #F4CC69",
"a@	c #F6D06B",
"b@	c #F7D169",
"c@	c #F5CF66",
"d@	c #F0CB61",
"e@	c #E9C258",
"f@	c #DCB34E",
"g@	c #CCA248",
"h@	c #BD9345",
"i@	c #AC8446",
"j@	c #92724A",
"k@	c #806145",
"l@	c #74543B",
"m@	c #745238",
"n@	c #8A5F43",
"o@	c #946949",
"p@	c #906544",
"q@	c #795538",
"r@	c #7B5A3D",
"s@	c #896842",
"t@	c #B8974F",
"u@	c #E1C053",
"v@	c #F0D665",
"w@	c #F5DF73",
"x@	c #F6E47B",
"y@	c #F6E47F",
"z@	c #F5E27C",
"A@	c #F2DC74",
"B@	c #EED368",
"C@	c #EAC75D",
"D@	c #E7BE55",
"E@	c #E8BB51",
"F@	c #EABB50",
"G@	c #EEBF53",
"H@	c #F1C456",
"I@	c #F3C756",
"J@	c #F6CA55",
"K@	c #F5CA53",
"L@	c #F1C753",
"M@	c #F1C65F",
"N@	c #E7C16D",
"O@	c #C9A96B",
"P@	c #A38357",
"Q@	c #725435",
"R@	c #5D402B",
"S@	c #6F4C38",
"T@	c #79563D",
"U@	c #6D4D33",
"V@	c #7D5A3B",
"W@	c #936E41",
"X@	c #B78E44",
"Y@	c #D4A33C",
"Z@	c #DFB13A",
"`@	c #E5BD40",
" #	c #EAC84B",
".#	c #EFD157",
"+#	c #F2D85F",
"@#	c #F3DB62",
"##	c #F3DC61",
"$#	c #F1D95C",
"%#	c #EFD354",
"&#	c #EBC94C",
"*#	c #E7BF4A",
"=#	c #E3B648",
"-#	c #E2B147",
";#	c #E4B145",
">#	c #E9B747",
",#	c #EEBE4D",
"'#	c #F2C75D",
")#	c #F4D17B",
"!#	c #F2D78E",
"~#	c #E8D18E",
"{#	c #CAAF71",
"]#	c #987A45",
"^#	c #775A36",
"/#	c #785337",
"(#	c #7B573B",
"_#	c #6F4F34",
":#	c #936A48",
"<#	c #976E4B",
"[#	c #9D774B",
"}#	c #B5904F",
"|#	c #D3AA56",
"1#	c #DFB254",
"2#	c #DCAC4A",
"3#	c #D8A540",
"4#	c #D9A639",
"5#	c #DDAD36",
"6#	c #E1B538",
"7#	c #E6BD3E",
"8#	c #EAC644",
"9#	c #EDCB47",
"0#	c #EECD47",
"a#	c #EDCB44",
"b#	c #ECC840",
"c#	c #E9C13A",
"d#	c #E5B838",
"e#	c #E1B03D",
"f#	c #DEAA42",
"g#	c #DDA949",
"h#	c #E1B663",
"i#	c #ECCC84",
"j#	c #F0D383",
"k#	c #EED17C",
"l#	c #E7C973",
"m#	c #D6B365",
"n#	c #B99B60",
"o#	c #9A8A74",
"p#	c #898785",
"q#	c #867D75",
"r#	c #956C48",
"s#	c #A1794F",
"t#	c #BD995C",
"u#	c #D9B567",
"v#	c #E8C168",
"w#	c #EDC365",
"x#	c #ECC162",
"y#	c #E8BB5E",
"z#	c #E3B254",
"A#	c #DBA948",
"B#	c #D6A23D",
"C#	c #D6A135",
"D#	c #DAA532",
"E#	c #DDAB32",
"F#	c #E0B134",
"G#	c #E4B636",
"H#	c #E7BA36",
"I#	c #E7BA34",
"J#	c #E6B731",
"K#	c #E4B231",
"L#	c #E0A930",
"M#	c #DAA033",
"N#	c #D7A244",
"O#	c #DFAF53",
"P#	c #E0B350",
"Q#	c #E3BC58",
"R#	c #EBCC71",
"S#	c #EDD285",
"T#	c #E1CB8B",
"U#	c #BEAB80",
"V#	c #9A9285",
"W#	c #8C7E73",
"X#	c #7B5B3C",
"Y#	c #99794B",
"Z#	c #D1B672",
"`#	c #EED98D",
" $	c #F2DB8D",
".$	c #EFD280",
"+$	c #EDC972",
"@$	c #ECC266",
"#$	c #ECBD5D",
"$$	c #E9BA59",
"%$	c #E6B655",
"&$	c #E0AF4D",
"*$	c #DAA642",
"=$	c #D59E39",
"-$	c #D39C33",
";$	c #D69F32",
">$	c #D9A332",
",$	c #DCA532",
"'$	c #DEA833",
")$	c #E0A832",
"!$	c #DFA52E",
"~$	c #D99D2C",
"{$	c #CD942C",
"]$	c #CA8E23",
"^$	c #C99126",
"/$	c #D3A545",
"($	c #E6C36D",
"_$	c #F0D381",
":$	c #EFD381",
"<$	c #DABC73",
"[$	c #A98958",
"}$	c #96704D",
"|$	c #7E5938",
"1$	c #A07F48",
"2$	c #DBBE67",
"3$	c #F3DE7D",
"4$	c #F7E688",
"5$	c #F7E68C",
"6$	c #F5E28A",
"7$	c #F2DA7F",
"8$	c #EED072",
"9$	c #EAC564",
"0$	c #E8BD5A",
"a$	c #E6B751",
"b$	c #E5B44D",
"c$	c #E3B04B",
"d$	c #DFAB45",
"e$	c #D9A33C",
"f$	c #D49C36",
"g$	c #D19933",
"h$	c #D39A34",
"i$	c #D69C35",
"j$	c #D79C35",
"k$	c #D19833",
"l$	c #C48E31",
"m$	c #BA822A",
"n$	c #BC8324",
"o$	c #CD9A3A",
"p$	c #E0B14F",
"q$	c #E5BA56",
"r$	c #E6BF5D",
"s$	c #DDBB62",
"t$	c #AF8D55",
"u$	c #99704C",
"v$	c #A0744F",
"w$	c #BC8F54",
"x$	c #D5AB4E",
"y$	c #E3C04D",
"z$	c #ECCE58",
"A$	c #F1D867",
"B$	c #F5DF70",
"C$	c #F6E274",
"D$	c #F5E173",
"E$	c #F3DD6D",
"F$	c #F0D563",
"G$	c #EBCB5A",
"H$	c #E6C053",
"I$	c #E3B64C",
"J$	c #E2B047",
"K$	c #E1AD43",
"L$	c #E0AB42",
"M$	c #DEA840",
"N$	c #D9A33A",
"O$	c #D39D39",
"P$	c #CF993E",
"Q$	c #CB9942",
"R$	c #C89D4E",
"S$	c #C69D50",
"T$	c #C18D35",
"U$	c #C8912D",
"V$	c #CE942A",
"W$	c #CD962C",
"X$	c #CE9E3D",
"Y$	c #C7A65A",
"Z$	c #A29179",
"`$	c #857468",
" %	c #A57856",
".%	c #BD8755",
"+%	c #BA8748",
"@%	c #C08D34",
"#%	c #CC9B32",
"$%	c #D7AB36",
"%%	c #E1BA41",
"&%	c #E8C64A",
"*%	c #EECF53",
"=%	c #F1D657",
"-%	c #F1D757",
";%	c #F1D554",
">%	c #EED04D",
",%	c #EBC945",
"'%	c #E7C043",
")%	c #E2B644",
"!%	c #DEAD44",
"~%	c #DEA942",
"{%	c #DDA63F",
"]%	c #DDA945",
"^%	c #DCAF53",
"/%	c #DCB35B",
"(%	c #E3C16A",
"_%	c #E3C36C",
":%	c #D2A54A",
"<%	c #C28D2F",
"[%	c #B67C1E",
"}%	c #B27A28",
"|%	c #AE7E3A",
"1%	c #A38766",
"2%	c #8F8B86",
"3%	c #797271",
"4%	c #976E4F",
"5%	c #9D6F4B",
"6%	c #996A44",
"7%	c #96673B",
"8%	c #9B6C39",
"9%	c #A2732E",
"0%	c #B4832B",
"a%	c #C39228",
"b%	c #D1A22F",
"c%	c #DCB037",
"d%	c #E3BB3C",
"e%	c #E9C23F",
"f%	c #EBC43F",
"g%	c #ECC53D",
"h%	c #EAC33A",
"i%	c #E8BD36",
"j%	c #E4B533",
"k%	c #E0AC35",
"l%	c #DBA43B",
"m%	c #D6A140",
"n%	c #DFB04D",
"o%	c #E6BA51",
"p%	c #ECC35A",
"q%	c #E9C661",
"r%	c #D4AF54",
"s%	c #BC8D3F",
"t%	c #A97637",
"u%	c #976837",
"v%	c #8F653E",
"w%	c #876C5A",
"x%	c #816F64",
"y%	c #76645A",
"z%	c #926B49",
"A%	c #785439",
"B%	c #7C5639",
"C%	c #7E5837",
"D%	c #865E35",
"E%	c #835826",
"F%	c #936727",
"G%	c #A77724",
"H%	c #BB8828",
"I%	c #CF9B33",
"J%	c #DBA838",
"K%	c #DEAD37",
"L%	c #E1B134",
"M%	c #E4B332",
"N%	c #E5B12F",
"O%	c #E2AB2D",
"P%	c #DCA12D",
"Q%	c #D2972C",
"R%	c #D8A033",
"S%	c #DCA633",
"T%	c #DEAE3D",
"U%	c #D7B24A",
"V%	c #BC9D4B",
"W%	c #BC8E54",
"X%	c #B88355",
"Y%	c #895E3B",
"Z%	c #7B5538",
"`%	c #7C5537",
" &	c #7B563A",
".&	c #936A4B",
"+&	c #835B3E",
"@&	c #7E5A3E",
"#&	c #77553A",
"$&	c #815B3D",
"%&	c #6B4730",
"&&	c #6C4A2C",
"*&	c #835B37",
"=&	c #926639",
"-&	c #A97742",
";&	c #BE8946",
">&	c #C28E3C",
",&	c #C59234",
"'&	c #D09A35",
")&	c #D9A037",
"!&	c #DCA134",
"~&	c #D79B2F",
"{&	c #CB9028",
"]&	c #C88F28",
"^&	c #C48D25",
"/&	c #C19331",
"(&	c #AD8935",
"_&	c #90713A",
":&	c #B18056",
"<&	c #B07F57",
"[&	c #7E593B",
"}&	c #705036",
"|&	c #805B3D",
"1&	c #976C47",
"2&	c #8C6547",
"3&	c #77543B",
"4&	c #7F593B",
"5&	c #986B47",
"6&	c #7D573C",
"7&	c #795537",
"8&	c #A97954",
"9&	c #BB8559",
"0&	c #AD7A52",
"a&	c #9B6E3F",
"b&	c #946937",
"c&	c #A37335",
"d&	c #B9853C",
"e&	c #C48D3B",
"f&	c #C58F3E",
"g&	c #BB8639",
"h&	c #B6843A",
"i&	c #BA853F",
"j&	c #B28249",
"k&	c #8A663A",
"l&	c #7F5E3E",
"m&	c #986C48",
"n&	c #563C28",
"o&	c #6F4D32",
"p&	c #946C4B",
"q&	c #926A47",
"r&	c #856243",
"s&	c #78583C",
"t&	c #80593E",
"u&	c #8E6C4F",
"v&	c #8F6B4C",
"w&	c #7C563D",
"x&	c #7C533A",
"y&	c #A77853",
"z&	c #B4835C",
"A&	c #A57752",
"B&	c #8D6444",
"C&	c #7C5839",
"D&	c #825C3A",
"E&	c #9E7148",
"F&	c #A37542",
"G&	c #977654",
"H&	c #947351",
"I&	c #A17A4F",
"J&	c #B7804E",
"K&	c #A87A51",
"L&	c #7F5B3D",
"M&	c #825C3F",
"N&	c #916746",
"O&	c #906846",
"P&	c #694B32",
"Q&	c #63432B",
"R&	c #714E32",
"S&	c #7A573B",
"T&	c #906848",
"U&	c #725136",
"V&	c #593D27",
"W&	c #654831",
"X&	c #79573C",
"Y&	c #795747",
"Z&	c #6E6B6A",
"`&	c #706B69",
" *	c #765742",
".*	c #7B553A",
"+*	c #936745",
"@*	c #9A6C47",
"#*	c #7F5A3F",
"$*	c #5A3E2B",
"%*	c #63442D",
"&*	c #976D44",
"**	c #835D3D",
"=*	c #7D5939",
"-*	c #8B6544",
";*	c #976D4A",
">*	c #A1734F",
",*	c #B88359",
"'*	c #B18059",
")*	c #5B3E29",
"!*	c #88644A",
"~*	c #936C49",
"{*	c #836043",
"]*	c #775437",
"^*	c #705139",
"/*	c #5B3D28",
"(*	c #69472F",
"_*	c #7A553A",
":*	c #775849",
"<*	c #6E6C6E",
"[*	c #6E696A",
"}*	c #775740",
"|*	c #8E6546",
"1*	c #976D4C",
"2*	c #7D5941",
"3*	c #593B28",
"4*	c #64432C",
"5*	c #7A5538",
"6*	c #946B4D",
"7*	c #815B41",
"8*	c #8A6345",
"9*	c #996C49",
"0*	c #A3724C",
"a*	c #B9855D",
"b*	c #B0805A",
"c*	c #593E29",
"d*	c #5A3D25",
"e*	c #986D4D",
"f*	c #77563B",
"g*	c #785538",
"h*	c #6D503B",
"i*	c #735038",
"j*	c #75533A",
"k*	c #72523C",
"l*	c #5C473A",
"m*	c #5D4638",
"n*	c #78543A",
"o*	c #7F573B",
"p*	c #7E573B",
"q*	c #835F43",
"r*	c #AF7E57",
"s*	c #AA7C58",
"t*	c #80593F",
"u*	c #81583D",
"v*	c #664530",
"w*	c #614029",
"x*	c #805A3F",
"y*	c #9A6C49",
"z*	c #9A6D49",
"A*	c #9D704C",
"B*	c #9B6E4A",
"C*	c #735239",
"D*	c #725238",
"E*	c #916949",
"F*	c #7B563D",
"G*	c #5F4130",
"H*	c #5E3E2A",
"I*	c #7A5439",
"J*	c #7A5337",
"K*	c #745137",
"L*	c #593C28",
"M*	c #593E2C",
"N*	c #785338",
"O*	c #78543B",
"P*	c #7A563D",
"Q*	c #8A6343",
"R*	c #BA855A",
"S*	c #B4825A",
"T*	c #7E583D",
"U*	c #7B563B",
"V*	c #60422E",
"W*	c #7B5941",
"X*	c #936949",
"Y*	c #775439",
"Z*	c #906747",
"`*	c #75533B",
" =	c #583F2D",
".=	c #825E42",
"+=	c #8D6446",
"@=	c #A37551",
"#=	c #9E7452",
"$=	c #996F4F",
"%=	c #956F52",
"&=	c #7A5840",
"*=	c #795337",
"==	c #8C6343",
"-=	c #835D41",
";=	c #A37653",
">=	c #A47854",
",=	c #A07553",
"'=	c #A2744F",
")=	c #6A4D36",
"!=	c #593C29",
"~=	c #715037",
"{=	c #836141",
"]=	c #7F6245",
"^=	c #82756D",
"/=	c #84746E",
"(=	c #876347",
"_=	c #865E3F",
":=	c #775238",
"<=	c #6E4C34",
"[=	c #7E5B3E",
"}=	c #956C4D",
"|=	c #B9855C",
"1=	c #B6865D",
"2=	c #7F5C3C",
"3=	c #785435",
"4=	c #8D6749",
"5=	c #886343",
"6=	c #7F593E",
"7=	c #976B48",
"8=	c #996D4A",
"9=	c #B7865F",
"0=	c #B98257",
"a=	c #765337",
"b=	c #5A3D29",
"c=	c #6C4B32",
"d=	c #775536",
"e=	c #795A47",
"f=	c #858482",
"g=	c #868886",
"h=	c #7A5F4B",
"i=	c #785940",
"j=	c #926848",
"k=	c #876144",
"l=	c #714D33",
"m=	c #8C6447",
"n=	c #AC7D58",
"o=	c #AC7A55",
"p=	c #886344",
"q=	c #846043",
"r=	c #886145",
"s=	c #986C49",
"t=	c #9A6D4A",
"u=	c #B5855E",
"v=	c #B9855B",
"w=	c #7E593D",
"x=	c #664731",
"y=	c #7F5C40",
"z=	c #916946",
"A=	c #916948",
"B=	c #926B4E",
"C=	c #8F7D72",
"D=	c #8C7C71",
"E=	c #866449",
"F=	c #7C5939",
"  . . + @ # $ % & * * = - ; > , ' ) ! ~ # { ] ^ / ( _ : < [ } | ",
"1 # # 2 3 4 5 6 7 8 8 9 0 a b b c b d e f g h i j j k l m n o p ",
"q r r s t u v w x y y z A B C D E b b F G H I J K K L M N O P Q ",
"R S S T U V k W X c Y Z `  .3 V ..b b b +.@.#.$.S S %.&.*.=.-.;.",
">.,.'.T ).!.v ~.{.].Y ^./.(._.v :.b <.[.> # }.%.'.'.%.|.1.2.3.4.",
"5.6.6.7.' 8.9.0.a.b.Y c.d.e.f.g.h.c i.j.k.l.m.n.6.6.o.p.q.r.s.t.",
"u.d d v.w.x.4 y.z.A.B.C.D.E.F.G.H.I.J.K.L.M.N.O.P.Q.R.S.T.U.V.W.",
"X.Y.Y.Z.`. +.+++@+#+$+%+&+*+=+-+;+>+,+'+)+!+~+{+]+c r.^+/+(+_+o.",
"_.:+<+[+}+|+1+2+3+4+5+6+7+8+9+0+a+b+c+d+e+f+g+h+i+j+U.k+l+m+n+o+",
"p+q+r+s+t+u+v+w+x+y+z+A+B+C+D+E+F+G+H+I+J++ K+L+M+N+O+P+Q+R+S+T+",
"U+V+W+X+Y+Z+`+ @.@+@@@#@$@%@&@*@=@-@v+;@>@,@'@)@}+!@~@{@]@^@/@(@",
"_@:@<@[@}@|@1@2@3@4@5@6@7@8@9@0@a@b@c@d@e@f@g@h@i@j@k@l@m@n@o@p@",
"j q@r@s@t@u@v@w@x@y@z@A@B@C@D@E@F@G@H@I@J@K@L@M@N@O@P@Q@R@S@T@U@",
"# j V@W@X@Y@Z@`@ #.#+#@###$#%#&#*#=#-#;#>#,#'#)#!#~#{#]#^#/#(#_#",
":#<#[#}#|#1#2#3#4#5#6#7#8#9#0#a#b#c#d#e#f#g#h#i#j#k#l#m#n#o#p#q#",
"r#s#t#u#v#w#x#y#z#A#B#C#D#E#F#G#H#I#J#K#L#M#N#O#P#Q#R#S#T#U#V#W#",
"X#Y#Z#`# $.$+$@$#$$$%$&$*$=$-$;$>$,$'$)$!$~${$]$^$/$($_$:$<$[$}$",
"|$1$2$3$4$5$6$7$8$9$0$a$b$c$d$e$f$g$h$i$j$k$l$m$n$o$p$q$r$s$t$u$",
"v$w$x$y$z$A$B$C$D$E$F$G$H$I$J$K$L$M$N$O$P$Q$R$S$T$U$V$W$X$Y$Z$`$",
" %.%+%@%#%$%%%&%*%=%-%;%>%,%'%)%!%~%{%]%^%/%(%_%:%<%[%}%|%1%2%3%",
"4%5%6%7%8%9%0%a%b%c%d%e%f%g%h%i%j%k%l%m%n%o%p%q%r%s%t%u%v%w%x%y%",
"z%L.A%v B%C%D%E%F%G%H%I%J%K%L%M%N%O%P%Q%R%S%T%U%V%W%X%Y%V Z%`% &",
".&+&@&#&k $&N.%&&&*&=&-&;&>&,&'&)&!&~&{&]&^&/&(&_&:&<&[&}&2 j |&",
"[.1&2&3&4&5&Y 6&7&8&9&0&o.a&b&c&d&e&f&g&h&i&j&k&l&m&:.0.n&o&j p&",
":#q&r&s&t&u&v&w&x&y&z&A&C B&C&D&E&F&G&H&I&J&K&L&M&N&O&P&Q&R&S&T&",
"U&V&W&X&Y&Z&`& *.*+*@*#*$*%*S&S&H.&***=*-*;*>*,*'*G.)*!*~*{*# ]*",
"^*/*(*_*:*<*[*}*4 |*1*2*3*4*5*j 6*F 7*M.8*9*0*a*b*c*d*+ e*> f*g*",
"h*i*j*[+k*l*m*n*.*o*p*] l@q*r*s*t*u*v*w*x*y*z*A*B*C*D*E*/@F*G*H*",
"; I*I*J*K*L*M*N*1 O*P*# # Q*R*S*T*U*V*L*W*O.E E X*Y*# Z*E `* =L*",
".=.*+=@=#=$=%=&=*=<@=== v -=;=>=,='=)=!=~={={*{*]=^=/=(=_=:=<=[=",
"W .*}=a*|=T.1=2=3=4=e 5=2 6=7=8=9=0=a=b=c=d=j j e=f=g=h=i=g*# j=",
"k=l=m=U n=n=o=T*1 ! B&p=q=r=s=t=u=v=w=x=y=z=A=* B=C=D=E=< F=<+Q+"};
