/* XPM */
static char * e_xpm[] = {
"32 32 847 2",
"  	c #886040",
". 	c #8C6643",
"+ 	c #8C6544",
"@ 	c #8A6344",
"# 	c #785539",
"$ 	c #7E5538",
"% 	c #906549",
"& 	c #92684A",
"* 	c #926949",
"= 	c #815C3D",
"- 	c #66442E",
"; 	c #6D4D32",
"> 	c #845F42",
", 	c #835E41",
"' 	c #946B4B",
") 	c #936C45",
"! 	c #866143",
"~ 	c #815E42",
"{ 	c #6F4E36",
"] 	c #77553C",
"^ 	c #8B6746",
"/ 	c #8C6445",
"( 	c #7B5639",
"_ 	c #77553B",
": 	c #7F5D42",
"< 	c #845E41",
"[ 	c #755538",
"} 	c #6E4D35",
"| 	c #6A4B36",
"1 	c #7A563C",
"2 	c #775438",
"3 	c #785438",
"4 	c #7A5539",
"5 	c #7D5636",
"6 	c #B5825A",
"7 	c #B7855D",
"8 	c #B8865E",
"9 	c #9E704F",
"0 	c #78553C",
"a 	c #805A3D",
"b 	c #976C4A",
"c 	c #966B49",
"d 	c #976D4B",
"e 	c #966B4A",
"f 	c #7C573A",
"g 	c #573D2A",
"h 	c #61432F",
"i 	c #7A553B",
"j 	c #79563A",
"k 	c #795539",
"l 	c #61422C",
"m 	c #583B26",
"n 	c #583C26",
"o 	c #573C26",
"p 	c #664730",
"q 	c #7D5A39",
"r 	c #845D3E",
"s 	c #845C3C",
"t 	c #825C3E",
"u 	c #76563D",
"v 	c #7A563A",
"w 	c #AD7E58",
"x 	c #B2835D",
"y 	c #B4825B",
"z 	c #9F704E",
"A 	c #7B5B46",
"B 	c #7D5E48",
"C 	c #906A4B",
"D 	c #8E6849",
"E 	c #966C4B",
"F 	c #976C4B",
"G 	c #7E583B",
"H 	c #5D412C",
"I 	c #6A4931",
"J 	c #845C3F",
"K 	c #835B3C",
"L 	c #835C3E",
"M 	c #644530",
"N 	c #5E402B",
"O 	c #65462E",
"P 	c #674831",
"Q 	c #714F36",
"R 	c #9F714F",
"S 	c #B8845E",
"T 	c #B9845C",
"U 	c #AE7E58",
"V 	c #7B5638",
"W 	c #946846",
"X 	c #986B49",
"Y 	c #966C4A",
"Z 	c #927766",
"` 	c #888788",
" .	c #847C79",
"..	c #926948",
"+.	c #876142",
"@.	c #78563B",
"#.	c #8F6443",
"$.	c #BA855D",
"%.	c #B8855E",
"&.	c #875E42",
"*.	c #785339",
"=.	c #A17452",
"-.	c #BA865E",
";.	c #AE7D58",
">.	c #9D704D",
",.	c #BA835B",
"'.	c #B9835B",
").	c #AC7E59",
"!.	c #795437",
"~.	c #8F694B",
"{.	c #946C4E",
"].	c #956D4B",
"^.	c #917868",
"/.	c #878889",
"(.	c #857C76",
"_.	c #77563C",
":.	c #956C4B",
"<.	c #956A48",
"[.	c #966C4C",
"}.	c #8F6545",
"|.	c #875D42",
"1.	c #79553B",
"2.	c #A37451",
"3.	c #BA855E",
"4.	c #AF7C55",
"5.	c #8B6C55",
"6.	c #996F4A",
"7.	c #996E4B",
"8.	c #795436",
"9.	c #765439",
"0.	c #64462E",
"a.	c #5F422E",
"b.	c #866447",
"c.	c #8A6448",
"d.	c #785C49",
"e.	c #715540",
"f.	c #5C3F29",
"g.	c #624228",
"h.	c #926A4A",
"i.	c #865B3A",
"j.	c #7D573A",
"k.	c #7A573C",
"l.	c #78563A",
"m.	c #845E3F",
"n.	c #986E4D",
"o.	c #9A6F4A",
"p.	c #B17C58",
"q.	c #B3805B",
"r.	c #996B49",
"s.	c #815B40",
"t.	c #8C6141",
"u.	c #876D58",
"v.	c #976C48",
"w.	c #916845",
"x.	c #795338",
"y.	c #795438",
"z.	c #5B3E27",
"A.	c #583E2C",
"B.	c #886341",
"C.	c #976A46",
"D.	c #8D6143",
"E.	c #7A523D",
"F.	c #735138",
"G.	c #563D2A",
"H.	c #5C3F28",
"I.	c #936B4D",
"J.	c #976B4A",
"K.	c #7F5A40",
"L.	c #7B563C",
"M.	c #79563C",
"N.	c #78553B",
"O.	c #815B3E",
"P.	c #976C4C",
"Q.	c #946D4A",
"R.	c #976D48",
"S.	c #986B46",
"T.	c #B1815B",
"U.	c #BA865D",
"V.	c #986A49",
"W.	c #76543D",
"X.	c #835E3F",
"Y.	c #7E5C42",
"Z.	c #835C3D",
"`.	c #835B3D",
" +	c #825B3E",
".+	c #775439",
"++	c #6E4D32",
"@+	c #6D4E35",
"#+	c #7E593C",
"$+	c #946949",
"%+	c #A57855",
"&+	c #A57754",
"*+	c #A2734E",
"=+	c #9E704C",
"-+	c #855E41",
";+	c #865C3F",
">+	c #6B4B34",
",+	c #66452F",
"'+	c #7C573D",
")+	c #8D6548",
"!+	c #8B6245",
"~+	c #845D40",
"{+	c #855E3F",
"]+	c #A17250",
"^+	c #A2754E",
"/+	c #A27652",
"(+	c #A67751",
"_+	c #795638",
":+	c #79553C",
"<+	c #785638",
"[+	c #795538",
"}+	c #7A5739",
"|+	c #78533A",
"1+	c #78563E",
"2+	c #9A6F4F",
"3+	c #B88658",
"4+	c #B9855B",
"5+	c #B2825B",
"6+	c #7C563A",
"7+	c #5F422D",
"8+	c #5D3D28",
"9+	c #80593D",
"0+	c #966A4A",
"a+	c #906546",
"b+	c #7B5438",
"c+	c #7C5638",
"d+	c #966B4B",
"e+	c #976A48",
"f+	c #956B45",
"g+	c #AA7C56",
"h+	c #BA8459",
"i+	c #A67750",
"j+	c #6E4F38",
"k+	c #6B4E38",
"l+	c #7E5A3C",
"m+	c #996B47",
"n+	c #8D6647",
"o+	c #6C4C34",
"p+	c #6F4C32",
"q+	c #936646",
"r+	c #976A49",
"s+	c #A17351",
"t+	c #AE7C53",
"u+	c #AF7A56",
"v+	c #AB7A53",
"w+	c #A87A56",
"x+	c #81593B",
"y+	c #76543B",
"z+	c #7C573C",
"A+	c #8A6042",
"B+	c #946747",
"C+	c #936544",
"D+	c #895C3C",
"E+	c #805C41",
"F+	c #876447",
"G+	c #876346",
"H+	c #8A6243",
"I+	c #9E724E",
"J+	c #A77A56",
"K+	c #9C7250",
"L+	c #64452E",
"M+	c #573E29",
"N+	c #886348",
"O+	c #BB8558",
"P+	c #AC7C58",
"Q+	c #714B32",
"R+	c #7A5137",
"S+	c #8C6143",
"T+	c #8E5E40",
"U+	c #AF7B55",
"V+	c #BC845B",
"W+	c #B27C56",
"X+	c #A97250",
"Y+	c #A8734F",
"Z+	c #A8724C",
"`+	c #A6724E",
" @	c #956444",
".@	c #916242",
"+@	c #9F6E4C",
"@@	c #A97350",
"#@	c #A9714D",
"$@	c #AD714D",
"%@	c #B0734F",
"&@	c #AB714D",
"*@	c #9D6949",
"=@	c #896145",
"-@	c #7A5943",
";@	c #78543E",
">@	c #79533A",
",@	c #8C6342",
"'@	c #956B4A",
")@	c #946B49",
"!@	c #69472C",
"~@	c #5E422C",
"{@	c #855F41",
"]@	c #B37E57",
"^@	c #AF7955",
"/@	c #A36947",
"(@	c #AE704D",
"_@	c #B2734F",
":@	c #AA6E4B",
"<@	c #AD7450",
"[@	c #B37651",
"}@	c #B47751",
"|@	c #B67651",
"1@	c #B97853",
"2@	c #B87852",
"3@	c #B77852",
"4@	c #B57550",
"5@	c #B4744F",
"6@	c #B77752",
"7@	c #BC7B54",
"8@	c #BE7C55",
"9@	c #C07C55",
"0@	c #C27F57",
"a@	c #C08456",
"b@	c #B98352",
"c@	c #A8774F",
"d@	c #8E6447",
"e@	c #745238",
"f@	c #8A5F43",
"g@	c #906544",
"h@	c #805B3E",
"i@	c #946445",
"j@	c #B27450",
"k@	c #BC7852",
"l@	c #B77551",
"m@	c #A96C4B",
"n@	c #956041",
"o@	c #89573C",
"p@	c #88573B",
"q@	c #965F41",
"r@	c #9F6545",
"s@	c #A16747",
"t@	c #A26847",
"u@	c #A46A48",
"v@	c #A86C4A",
"w@	c #AD704D",
"x@	c #B2724E",
"y@	c #AF714D",
"z@	c #AF784E",
"A@	c #AD8A4E",
"B@	c #AE914F",
"C@	c #B28550",
"D@	c #A5714B",
"E@	c #7F5337",
"F@	c #68452F",
"G@	c #714E39",
"H@	c #79563D",
"I@	c #6D4D33",
"J@	c #79553A",
"K@	c #835A3D",
"L@	c #A06947",
"M@	c #B77651",
"N@	c #B3724F",
"O@	c #976042",
"P@	c #7A4D35",
"Q@	c #653F2A",
"R@	c #633D29",
"S@	c #66402B",
"T@	c #764A32",
"U@	c #734931",
"V@	c #6E462F",
"W@	c #754B33",
"X@	c #7D5037",
"Y@	c #85553B",
"Z@	c #8E5B3F",
"`@	c #8E5B3E",
" #	c #8A583D",
".#	c #88563C",
"+#	c #86563A",
"@#	c #845F3B",
"##	c #85763E",
"$#	c #938244",
"%#	c #AB814D",
"&#	c #B37850",
"*#	c #A36847",
"=#	c #8F5D41",
"-#	c #88593E",
";#	c #825A3E",
">#	c #715035",
",#	c #946A48",
"'#	c #986C4B",
")#	c #966848",
"!#	c #996445",
"~#	c #A06747",
"{#	c #8D5A3F",
"]#	c #6F4630",
"^#	c #5A3826",
"/#	c #503120",
"(#	c #573624",
"_#	c #603C28",
":#	c #6F452F",
"<#	c #603C29",
"[#	c #513221",
"}#	c #583725",
"|#	c #5B3926",
"1#	c #68412C",
"2#	c #774B33",
"3#	c #704730",
"4#	c #65402C",
"5#	c #633E2A",
"6#	c #5C3927",
"7#	c #5A3D26",
"8#	c #614D2B",
"9#	c #6E5531",
"0#	c #8F633F",
"a#	c #AC704C",
"b#	c #B87652",
"c#	c #B97752",
"d#	c #B27C62",
"e#	c #9E8379",
"f#	c #8D7D73",
"g#	c #9B6D4A",
"h#	c #A7714E",
"i#	c #A86E4C",
"j#	c #835439",
"k#	c #6D4630",
"l#	c #583826",
"m#	c #4F3120",
"n#	c #593725",
"o#	c #643E2A",
"p#	c #6E452E",
"q#	c #4B2E1E",
"r#	c #613D29",
"s#	c #744931",
"t#	c #6D452F",
"u#	c #5F3B28",
"v#	c #563524",
"w#	c #4A2E1E",
"x#	c #4B2F1F",
"y#	c #533523",
"z#	c #513423",
"A#	c #623F2A",
"B#	c #86553B",
"C#	c #BC7853",
"D#	c #C17E59",
"E#	c #B5836B",
"F#	c #9A7E6E",
"G#	c #B0724E",
"H#	c #B1714D",
"I#	c #9A6243",
"J#	c #86563B",
"K#	c #6C4630",
"L#	c #543624",
"M#	c #4E3020",
"N#	c #6C432D",
"O#	c #553523",
"P#	c #523321",
"Q#	c #633E29",
"R#	c #754932",
"S#	c #6F462F",
"T#	c #613C28",
"U#	c #553423",
"V#	c #482C1D",
"W#	c #533422",
"X#	c #4C2F1F",
"Y#	c #482D1E",
"Z#	c #65402B",
"`#	c #945F41",
" $	c #C37D56",
".$	c #BB7B55",
"+$	c #A4724F",
"@$	c #986443",
"#$	c #B77650",
"$$	c #BB7852",
"%$	c #AF704D",
"&$	c #9B6444",
"*$	c #7E5037",
"=$	c #5D3B28",
"-$	c #4C2F20",
";$	c #492E1E",
">$	c #543423",
",$	c #643F2A",
"'$	c #513222",
")$	c #4A2D1E",
"!$	c #523322",
"~$	c #613D28",
"{$	c #724830",
"]$	c #6B432D",
"^$	c #5E3A27",
"/$	c #533322",
"($	c #472C1D",
"_$	c #492D1E",
":$	c #452B1C",
"<$	c #5E3C28",
"[$	c #925E40",
"}$	c #C27D55",
"|$	c #B57954",
"1$	c #A1704E",
"2$	c #A77451",
"3$	c #BD7E57",
"4$	c #BC7953",
"5$	c #AD6F4C",
"6$	c #966042",
"7$	c #67412D",
"8$	c #573725",
"9$	c #513322",
"0$	c #4B2E1F",
"a$	c #482C1E",
"b$	c #4F3121",
"c$	c #67402B",
"d$	c #5E3B27",
"e$	c #4E3120",
"f$	c #452A1C",
"g$	c #462B1C",
"h$	c #503221",
"i$	c #4D2F20",
"j$	c #533424",
"k$	c #744A33",
"l$	c #9E6546",
"m$	c #BF7F5A",
"n$	c #A98070",
"o$	c #8C7366",
"p$	c #A77856",
"q$	c #BD8359",
"r$	c #BA7E57",
"s$	c #BC7A54",
"t$	c #BB7953",
"u$	c #A36948",
"v$	c #976142",
"w$	c #87573B",
"x$	c #6E4630",
"y$	c #593926",
"z$	c #4E3121",
"A$	c #41291B",
"B$	c #41281B",
"C$	c #4B2F20",
"D$	c #543524",
"E$	c #5C3A27",
"F$	c #603D2A",
"G$	c #5F3D29",
"H$	c #583825",
"I$	c #593825",
"J$	c #6C442E",
"K$	c #805238",
"L$	c #9C6445",
"M$	c #B47450",
"N$	c #C17D55",
"O$	c #BB7F5F",
"P$	c #A1857B",
"Q$	c #80726F",
"R$	c #976E4F",
"S$	c #9E704D",
"T$	c #9E6D4A",
"U$	c #A66E4B",
"V$	c #B37550",
"W$	c #B37450",
"X$	c #B87751",
"Y$	c #BA7852",
"Z$	c #996243",
"`$	c #7C4F36",
" %	c #643F2B",
".%	c #563725",
"+%	c #724932",
"@%	c #794D35",
"#%	c #8B593D",
"$%	c #915D40",
"%%	c #8D5B3E",
"&%	c #8F5C3F",
"*%	c #996344",
"=%	c #A56949",
"-%	c #B1734F",
";%	c #BA7A53",
">%	c #BE7B55",
",%	c #B87A59",
"'%	c #A4765F",
")%	c #83685A",
"!%	c #926B49",
"~%	c #7A553A",
"{%	c #835B3E",
"]%	c #8C5F41",
"^%	c #936344",
"/%	c #AA704D",
"(%	c #C27D56",
"_%	c #A76C4A",
":%	c #996244",
"<%	c #925D40",
"[%	c #9A6244",
"}%	c #A36848",
"|%	c #9E6445",
"1%	c #AC6E4C",
"2%	c #B0714E",
"3%	c #A96D4A",
"4%	c #A66C4A",
"5%	c #A96E4B",
"6%	c #C08159",
"7%	c #C0835A",
"8%	c #9C6946",
"9%	c #986544",
"0%	c #9F6947",
"a%	c #9A6644",
"b%	c #865B3E",
"c%	c #936A4B",
"d%	c #7E5A3E",
"e%	c #77553A",
"f%	c #7B563A",
"g%	c #865D3F",
"h%	c #946545",
"i%	c #A36949",
"j%	c #BF7B56",
"k%	c #BD7B54",
"l%	c #B97852",
"m%	c #BA7752",
"n%	c #BE7A54",
"o%	c #BB7A54",
"p%	c #B27552",
"q%	c #A26E51",
"r%	c #97694C",
"s%	c #9D6B49",
"t%	c #9A6847",
"u%	c #8B5B3C",
"v%	c #895B3D",
"w%	c #B37D57",
"x%	c #B27F58",
"y%	c #825B3C",
"z%	c #765338",
"A%	c #81593C",
"B%	c #976C47",
"C%	c #8C6547",
"D%	c #77543B",
"E%	c #7F593B",
"F%	c #986B47",
"G%	c #986D4B",
"H%	c #8B5E41",
"I%	c #956342",
"J%	c #B87D56",
"K%	c #C3835A",
"L%	c #BE7E57",
"M%	c #B77954",
"N%	c #B67752",
"O%	c #B07551",
"P%	c #AB734F",
"Q%	c #907060",
"R%	c #7D6E68",
"S%	c #997C67",
"T%	c #BB865D",
"U%	c #AA7A56",
"V%	c #7D593D",
"W%	c #7D5A3F",
"X%	c #986B48",
"Y%	c #563C28",
"Z%	c #704D32",
"`%	c #946C4B",
" &	c #936A48",
".&	c #926A47",
"+&	c #856243",
"@&	c #78583C",
"#&	c #80593E",
"$&	c #8E6C4F",
"%&	c #8F6B4C",
"&&	c #7D573D",
"*&	c #80553B",
"=&	c #AA7954",
"-&	c #B7835C",
";&	c #AB7953",
">&	c #9C6E4D",
",&	c #996A48",
"'&	c #8B5F41",
")&	c #8A5F40",
"!&	c #9D6E4D",
"~&	c #9A6E48",
"{&	c #796B63",
"]&	c #6E6867",
"^&	c #957760",
"/&	c #B88156",
"(&	c #A77954",
"_&	c #7E5A3D",
":&	c #825C3F",
"<&	c #916746",
"[&	c #906846",
"}&	c #694B32",
"|&	c #63432B",
"1&	c #714E32",
"2&	c #7A573B",
"3&	c #906848",
"4&	c #725136",
"5&	c #593D27",
"6&	c #654831",
"7&	c #79573C",
"8&	c #795747",
"9&	c #6E6B6A",
"0&	c #706B69",
"a&	c #765742",
"b&	c #7B553A",
"c&	c #936745",
"d&	c #9A6C47",
"e&	c #805B3F",
"f&	c #5C3F2C",
"g&	c #65452E",
"h&	c #7B583B",
"i&	c #966D45",
"j&	c #7F5B3E",
"k&	c #76553B",
"l&	c #886346",
"m&	c #966D4B",
"n&	c #A1734F",
"o&	c #B88359",
"p&	c #B18059",
"q&	c #5B3E29",
"r&	c #88644A",
"s&	c #936C49",
"t&	c #836043",
"u&	c #775437",
"v&	c #705139",
"w&	c #5B3D28",
"x&	c #69472F",
"y&	c #775849",
"z&	c #6E6C6E",
"A&	c #6E696A",
"B&	c #775740",
"C&	c #8E6546",
"D&	c #976D4C",
"E&	c #7D5941",
"F&	c #593B28",
"G&	c #64432C",
"H&	c #7A5538",
"I&	c #946B4D",
"J&	c #815B41",
"K&	c #8A6345",
"L&	c #996C49",
"M&	c #A3724C",
"N&	c #B9855D",
"O&	c #B0805A",
"P&	c #593E29",
"Q&	c #5A3D25",
"R&	c #986D4D",
"S&	c #77563B",
"T&	c #785538",
"U&	c #6D503B",
"V&	c #735038",
"W&	c #75533A",
"X&	c #72523C",
"Y&	c #5C473A",
"Z&	c #5D4638",
"`&	c #78543A",
" *	c #7F573B",
".*	c #7E573B",
"+*	c #74543B",
"@*	c #835F43",
"#*	c #AF7E57",
"$*	c #AA7C58",
"%*	c #80593F",
"&*	c #81583D",
"**	c #664530",
"=*	c #614029",
"-*	c #805A3F",
";*	c #9A6C49",
">*	c #9A6D49",
",*	c #9D704C",
"'*	c #9B6E4A",
")*	c #735239",
"!*	c #725238",
"~*	c #916949",
"{*	c #7B563D",
"]*	c #5F4130",
"^*	c #5E3E2A",
"/*	c #7A5439",
"(*	c #7A5337",
"_*	c #745137",
":*	c #593C28",
"<*	c #593E2C",
"[*	c #785338",
"}*	c #78543B",
"|*	c #7A563D",
"1*	c #8A6343",
"2*	c #BA855A",
"3*	c #B4825A",
"4*	c #7E583D",
"5*	c #7B563B",
"6*	c #60422E",
"7*	c #7B5941",
"8*	c #936949",
"9*	c #906747",
"0*	c #75533B",
"a*	c #583F2D",
"b*	c #825E42",
"c*	c #8D6446",
"d*	c #A37551",
"e*	c #9E7452",
"f*	c #996F4F",
"g*	c #956F52",
"h*	c #7A5840",
"i*	c #795337",
"j*	c #855F42",
"k*	c #8C6343",
"l*	c #835D41",
"m*	c #A37653",
"n*	c #A47854",
"o*	c #A07553",
"p*	c #A2744F",
"q*	c #6A4D36",
"r*	c #593C29",
"s*	c #715037",
"t*	c #836141",
"u*	c #7F6245",
"v*	c #82756D",
"w*	c #84746E",
"x*	c #876347",
"y*	c #865E3F",
"z*	c #775238",
"A*	c #6E4C34",
"B*	c #7E5B3E",
"C*	c #956C4D",
"D*	c #B9855C",
"E*	c #B6865D",
"F*	c #7F5C3C",
"G*	c #785435",
"H*	c #8D6749",
"I*	c #886343",
"J*	c #7F593E",
"K*	c #976B48",
"L*	c #996D4A",
"M*	c #B7865F",
"N*	c #B98257",
"O*	c #765337",
"P*	c #5A3D29",
"Q*	c #6C4B32",
"R*	c #775536",
"S*	c #795A47",
"T*	c #858482",
"U*	c #868886",
"V*	c #7A5F4B",
"W*	c #785940",
"X*	c #926848",
"Y*	c #876144",
"Z*	c #714D33",
"`*	c #8C6447",
" =	c #AC7D58",
".=	c #AC7A55",
"+=	c #8D6444",
"@=	c #886344",
"#=	c #846043",
"$=	c #886145",
"%=	c #986C49",
"&=	c #9A6D4A",
"*=	c #B5855E",
"==	c #7E593D",
"-=	c #664731",
";=	c #7F5C40",
">=	c #916946",
",=	c #916948",
"'=	c #926B4E",
")=	c #8F7D72",
"!=	c #8C7C71",
"~=	c #866449",
"{=	c #7C5939",
"  . . + @ # $ % & * * = - ; > , ' ) ! ~ # { ] ^ / ( _ : < [ } | ",
"1 # # 2 3 4 5 6 7 8 8 9 0 a b b c b d e f g h i j j k l m n o p ",
"q r r s t u v w x y y z A B C D E b b F G H I J K K L M N O P Q ",
"R S S T U V k W X c Y Z `  .3 V ..b b b +.@.#.$.S S %.&.*.=.-.;.",
">.,.'.T ).!.v ~.{.].Y ^./.(._.v :.b <.[.> # }.%.'.'.%.|.1.2.3.4.",
"5.6.6.7.' 8.9.0.a.b.Y c.d.e.f.g.h.c i.j.k.l.m.n.6.6.o.p.q.r.s.t.",
"u.d d v.w.x.y.z.A.B.C.D.E.F.G.H.I.J.K.L.M.N.O.P.Q.R.S.T.U.V.W.X.",
"Y.Z.Z.`. +.+k ++@+#+r $+%+&+*+=+-+;+>+,+'+)+!+~+{+c r.]+^+/+(+o.",
"_.y._+:+N.<+[+3 }+|+1+2+3+'.4+5+6+L.7+8+9+0+a+b+c+d+V.e+f+g+h+i+",
"j+k+l+m+n+o+p+k f q+r+s+t+u+v+w+x+k.y+z+A+B+C+D+E+F+F+G+H+I+J+K+",
"L+M+N+O+P+Q+R+S+T+U+V+W+X+Y+Z+`+ @.@+@@@#@$@%@&@*@=@-@;@>@,@'@)@",
"!@~@{@]@^@/@(@_@:@<@[@}@|@1@2@3@4@5@6@7@8@9@0@a@b@c@d@0 e@f@$+g@",
"j [+h@i@j@k@l@m@n@o@p@q@r@s@t@u@v@w@x@x@y@(@z@A@B@C@D@E@F@G@H@I@",
"# J@K@L@M@N@O@P@Q@R@S@T@U@V@W@X@Y@Z@`@ #.#+#@###$#%#&#*#=#-#;#>#",
",#'#)#!#~#{#]#^#/#(#_#:#<#[#}#|#1#2#3#4#5#6#7#8#9#0#a#b#c#d#e#f#",
"g#h#i#n@j#k#l#[#m#n#o#p#n#q#[#[#r#s#t#u#v#w#x#y#z#A#B#v@C#D#E#F#",
"C+G#H#I#J#K#L#M#M#n#o#N#O#w#P#[#Q#R#S#T#U#V#w#W#X#Y#Z#`#5@ $.$+$",
"@$#$$$%$&$*$=$-$;$>$u#,$'$)$!$/#~${$]$^$/$($_$/$X#:$<$[$4@}$|$1$",
"2$3$9@4$5$6$X@7$8$9$O#}#0$a$b$0$}#c$d$v#e$f$g$h$i$j$k$l$4$m$n$o$",
"p$q$r$s$t$%$u$v$w$x$y$z$A$B$_$C$D$E$F$A#G$H$I$5#J$K$L$M$N$O$P$Q$",
"R$S$T$U$V$W$X$Y$x@Z$`$ %.%8$ %+%@%P@#%`#$%%%&%*%=%-%;%;%>%,%'%)%",
"!%M.~%{%]%^%/%C#(%X$_%:%<%[$[%}%*#|%1%2%3%4%5%5$2%6%7%8%9%0%a%b%",
"c%{%d%e%f%g%h%i%M@9@j%k%l%Y$m%k@n%o%p%q%r%s%t%u%v%w%x%y%z%A%`.L ",
"[.B%C%D%E%F%G%H%I%J%K%L%M%N%G#w@O%P%Q%R%S%T%U%V%W%X%:.0.Y%Z%v `%",
" &.&+&@&#&$&%&&&*&=&-&;&>&,&'&)&!&~&{&]&^&/&(&_&:&<&[&}&|&1&2&3&",
"4&5&6&7&8&9&0&a&b&c&d&e&f&g&h&h&I.i&j&k&l&m&n&o&p&H.q&r&s&t&# u&",
"v&w&x&~%y&z&A&B&4 C&D&E&F&G&H&j I&F J&N.K&L&M&N&O&P&Q&+ R&> S&T&",
"U&V&W&:+X&Y&Z&`&b& *.*] +*@*#*$*%*&***=*-*;*>*,*'*)*!*~*'@{*]*^*",
"; /*/*(*_*:*<*[*1 }*|*# # 1*2*3*4*5*6*:*7*P.E E 8*.+# 9*E 0*a*:*",
"b*b&c*d*e*f*g*h*i*j*k*= v l*m*n*o*p*q*r*s*t*t&t&u*v*w*x*y*z*A*B*",
"W b&C*N&D*U.E*F*G*H*e I*2 J*K*L*M*N*O*P*Q*R*j j S*T*U*V*W*T&# X*",
"Y*Z*`*U  = =.=4*1 ! +=@=#=$=%=&=*=4+==-=;=>=,=* '=)=!=~=< {=_+H+"};
