/* XPM */
static char * p_xpm[] = {
"32 32 902 2",
"  	c #886040",
". 	c #8C6643",
"+ 	c #8C6544",
"@ 	c #8A6344",
"# 	c #785539",
"$ 	c #7E5538",
"% 	c #906549",
"& 	c #92684A",
"* 	c #926949",
"= 	c #825D3F",
"- 	c #775949",
"; 	c #9C7E6A",
"> 	c #C9A68F",
", 	c #D7A788",
"' 	c #D4A687",
") 	c #BC7F4D",
"! 	c #99663D",
"~ 	c #835E41",
"{ 	c #6F4E36",
"] 	c #77553C",
"^ 	c #8B6746",
"/ 	c #8C6445",
"( 	c #7B5639",
"_ 	c #77553B",
": 	c #7F5D42",
"< 	c #845E41",
"[ 	c #755538",
"} 	c #6E4D35",
"| 	c #6A4B36",
"1 	c #7A563C",
"2 	c #775438",
"3 	c #785438",
"4 	c #7A5539",
"5 	c #7D5636",
"6 	c #B5825A",
"7 	c #B7855D",
"8 	c #B8865E",
"9 	c #B8875F",
"0 	c #A77C61",
"a 	c #BD9179",
"b 	c #E8A375",
"c 	c #F39F61",
"d 	c #F89E54",
"e 	c #F9A263",
"f 	c #F38E32",
"g 	c #DA7E28",
"h 	c #AB6E40",
"i 	c #7F5739",
"j 	c #573D2A",
"k 	c #61432F",
"l 	c #7A553B",
"m 	c #79563A",
"n 	c #795539",
"o 	c #61422C",
"p 	c #583B26",
"q 	c #583C26",
"r 	c #573C26",
"s 	c #664730",
"t 	c #7D5A39",
"u 	c #845D3E",
"v 	c #845C3C",
"w 	c #825C3E",
"x 	c #76563D",
"y 	c #7A563A",
"z 	c #AD7E58",
"A 	c #B2835D",
"B 	c #B4825B",
"C 	c #B78662",
"D 	c #C79173",
"E 	c #EF9960",
"F 	c #F9923B",
"G 	c #F68B21",
"H 	c #FD921F",
"I 	c #FD9025",
"J 	c #FE8E0B",
"K 	c #F88A09",
"L 	c #D87C26",
"M 	c #935D34",
"N 	c #5E412C",
"O 	c #6A4931",
"P 	c #845C3F",
"Q 	c #835B3C",
"R 	c #835C3E",
"S 	c #644530",
"T 	c #5E402B",
"U 	c #65462E",
"V 	c #674831",
"W 	c #714F36",
"X 	c #9F714F",
"Y 	c #B8845E",
"Z 	c #B9845C",
"` 	c #AE7E58",
" .	c #7B5638",
"..	c #946846",
"+.	c #986B49",
"@.	c #976B49",
"#.	c #AC764E",
"$.	c #E79157",
"%.	c #FA8F2E",
"&.	c #F08304",
"*.	c #F68700",
"=.	c #FA8B03",
"-.	c #F78800",
";.	c #FE8D00",
">.	c #FF8E00",
",.	c #F2870E",
"'.	c #B96C2B",
").	c #805738",
"!.	c #8F6443",
"~.	c #BA855D",
"{.	c #B8855E",
"].	c #875E42",
"^.	c #785339",
"/.	c #A17452",
"(.	c #BA865E",
"_.	c #AE7D58",
":.	c #9D704D",
"<.	c #BA835B",
"[.	c #B9835B",
"}.	c #AC7E59",
"|.	c #795437",
"1.	c #8F694B",
"2.	c #946D4F",
"3.	c #9C704D",
"4.	c #C4793D",
"5.	c #EF8727",
"6.	c #F88905",
"7.	c #ED8000",
"8.	c #F98A00",
"9.	c #F88900",
"0.	c #FD8C00",
"a.	c #F78902",
"b.	c #D4761A",
"c.	c #8D5A33",
"d.	c #8F6545",
"e.	c #875D42",
"f.	c #79553B",
"g.	c #A37451",
"h.	c #BA855E",
"i.	c #AF7C55",
"j.	c #8B6C55",
"k.	c #996F4A",
"l.	c #996E4B",
"m.	c #946B4B",
"n.	c #795436",
"o.	c #765439",
"p.	c #64462E",
"q.	c #634736",
"r.	c #9E7558",
"s.	c #D58345",
"t.	c #F08416",
"u.	c #F38500",
"v.	c #FC8B00",
"w.	c #FA8A00",
"x.	c #F98900",
"y.	c #F28300",
"z.	c #E97D00",
"A.	c #D87512",
"B.	c #995E30",
"C.	c #865E3E",
"D.	c #986E4D",
"E.	c #9A6F4A",
"F.	c #B17C58",
"G.	c #B3805B",
"H.	c #996B49",
"I.	c #815B40",
"J.	c #8C6141",
"K.	c #876D58",
"L.	c #976D4B",
"M.	c #976C48",
"N.	c #916845",
"O.	c #795338",
"P.	c #795438",
"Q.	c #5B3E27",
"R.	c #664733",
"S.	c #B17750",
"T.	c #D47F3B",
"U.	c #E9872E",
"V.	c #F1891F",
"W.	c #F08711",
"X.	c #F2870B",
"Y.	c #F28812",
"Z.	c #F08719",
"`.	c #EB8319",
" +	c #E3822C",
".+	c #D58140",
"++	c #B3692F",
"@+	c #885835",
"#+	c #825B3D",
"$+	c #976C4C",
"%+	c #946D4A",
"&+	c #976D48",
"*+	c #986B46",
"=+	c #B1815B",
"-+	c #BA865D",
";+	c #986A49",
">+	c #76543D",
",+	c #835E3F",
"'+	c #7E5C42",
")+	c #835C3D",
"!+	c #835B3D",
"~+	c #825B3E",
"{+	c #775439",
"]+	c #6E4D32",
"^+	c #6F4F36",
"/+	c #8C6244",
"(+	c #AA7F5C",
"_+	c #D1A375",
":+	c #DCA166",
"<+	c #D08F51",
"[+	c #CA8548",
"}+	c #D38E51",
"|+	c #C38757",
"1+	c #A27355",
"2+	c #AE8C71",
"3+	c #CCAC8E",
"4+	c #9B7A60",
"5+	c #8E6649",
"6+	c #8B6245",
"7+	c #845D40",
"8+	c #855E3F",
"9+	c #966B49",
"0+	c #A17250",
"a+	c #A2754E",
"b+	c #A27652",
"c+	c #A67751",
"d+	c #77563C",
"e+	c #795638",
"f+	c #79553C",
"g+	c #78553B",
"h+	c #785638",
"i+	c #795538",
"j+	c #7A5739",
"k+	c #77533A",
"l+	c #8D725C",
"m+	c #DBBF9E",
"n+	c #F4D1A6",
"o+	c #EEC798",
"p+	c #E4BD90",
"q+	c #EDC495",
"r+	c #E1BC91",
"s+	c #B39E88",
"t+	c #D0B492",
"u+	c #D6B691",
"v+	c #B19C88",
"w+	c #9F7D65",
"x+	c #90684B",
"y+	c #7A5438",
"z+	c #7C5638",
"A+	c #966B4B",
"B+	c #976A48",
"C+	c #956B45",
"D+	c #AA7C56",
"E+	c #BA8459",
"F+	c #A67750",
"G+	c #6E4F38",
"H+	c #6B4E38",
"I+	c #7E5A3C",
"J+	c #996B47",
"K+	c #8D6647",
"L+	c #6A4B33",
"M+	c #6D4B31",
"N+	c #7A5639",
"O+	c #926546",
"P+	c #A47E62",
"Q+	c #E0C6A9",
"R+	c #FBDDB7",
"S+	c #FCDBB0",
"T+	c #F4D4AB",
"U+	c #FCDAB0",
"V+	c #F4D4AC",
"W+	c #CCB396",
"X+	c #E4C39B",
"Y+	c #E0C5A8",
"Z+	c #E0D9D2",
"`+	c #C4B6AB",
" @	c #9D806A",
".@	c #7F5A3D",
"+@	c #77583E",
"@@	c #856347",
"#@	c #876447",
"$@	c #876346",
"%@	c #8A6243",
"&@	c #9E724E",
"*@	c #A77A56",
"=@	c #9C7250",
"-@	c #64452E",
";@	c #573E29",
">@	c #886348",
",@	c #BB8558",
"'@	c #AA7C58",
")@	c #583D28",
"!@	c #593F2B",
"~@	c #76563C",
"{@	c #7A5439",
"]@	c #AA7A55",
"^@	c #BD8C65",
"/@	c #CFAE8D",
"(@	c #F0D1AA",
"_@	c #FBD9AE",
":@	c #FADAB0",
"<@	c #FEDDB3",
"[@	c #F5D6AE",
"}@	c #C3AA8D",
"|@	c #CDB090",
"1@	c #D3CBC3",
"2@	c #EFEEEC",
"3@	c #E9E1DA",
"4@	c #D0B9A1",
"5@	c #947558",
"6@	c #78563D",
"7@	c #735540",
"8@	c #745642",
"9@	c #77543E",
"0@	c #79533A",
"a@	c #8C6342",
"b@	c #956B4A",
"c@	c #946B49",
"d@	c #69472C",
"e@	c #5E422C",
"f@	c #B07E57",
"g@	c #A27553",
"h@	c #5A3C2A",
"i@	c #76553B",
"j@	c #9F7553",
"k@	c #B17F57",
"l@	c #B18865",
"m@	c #D9B58D",
"n@	c #EBC99D",
"o@	c #ECCBA1",
"p@	c #F5D4AA",
"q@	c #F0CEA5",
"r@	c #B79E83",
"s@	c #BFAE9E",
"t@	c #D3D0CE",
"u@	c #F2F2F2",
"v@	c #F0EDEA",
"w@	c #DFCCB9",
"x@	c #B08C6B",
"y@	c #8C6341",
"z@	c #765742",
"A@	c #755641",
"B@	c #72523A",
"C@	c #745238",
"D@	c #8A5F43",
"E@	c #946949",
"F@	c #906544",
"G@	c #7A583C",
"H@	c #75543B",
"I@	c #70523A",
"J@	c #573B25",
"K@	c #5B3C29",
"L@	c #76543B",
"M@	c #78563A",
"N@	c #8B6140",
"O@	c #A8805A",
"P@	c #C39C71",
"Q@	c #D8B790",
"R@	c #E3C29A",
"S@	c #DAB58B",
"T@	c #C0A68C",
"U@	c #D1C3B4",
"V@	c #E1D8CF",
"W@	c #F1EFEC",
"X@	c #EAE9E7",
"Y@	c #DED5CD",
"Z@	c #C29978",
"`@	c #B4835A",
" #	c #7B5439",
".#	c #7B543C",
"+#	c #63422B",
"@#	c #5A3D2A",
"##	c #6E4C38",
"$#	c #79563D",
"%#	c #6D4D33",
"&#	c #78553A",
"*#	c #745136",
"=#	c #5C3D26",
"-#	c #5D3E2A",
";#	c #795639",
">#	c #8A6141",
",#	c #966C4A",
"'#	c #A07B5F",
")#	c #BBA99B",
"!#	c #D2C5BA",
"~#	c #D2C0AE",
"{#	c #E4C8A7",
"]#	c #F6D8B3",
"^#	c #F6D9B8",
"/#	c #E6D7C8",
"(#	c #E6E4E2",
"_#	c #E4E1E0",
":#	c #BB9880",
"<#	c #AE805D",
"[#	c #7D563D",
"}#	c #7C553D",
"|#	c #623F29",
"1#	c #593D2D",
"2#	c #714C35",
"3#	c #7A563B",
"4#	c #6F4F34",
"5#	c #936A48",
"6#	c #936A4A",
"7#	c #886244",
"8#	c #79563B",
"9#	c #78543A",
"0#	c #765238",
"a#	c #775337",
"b#	c #90684A",
"c#	c #936A49",
"d#	c #926A4A",
"e#	c #926A4B",
"f#	c #896142",
"g#	c #7C5639",
"h#	c #7B5F4B",
"i#	c #9B9591",
"j#	c #D3CECA",
"k#	c #E8D6C1",
"l#	c #FADBB4",
"m#	c #FFDEB4",
"n#	c #FADAB1",
"o#	c #E5CDB2",
"p#	c #E9E5E2",
"q#	c #E6E4E3",
"r#	c #A08B7E",
"s#	c #976E4D",
"t#	c #956A48",
"u#	c #7C573C",
"v#	c #755437",
"w#	c #7E7470",
"x#	c #848485",
"y#	c #867D75",
"z#	c #946B48",
"A#	c #946A49",
"B#	c #896244",
"C#	c #775338",
"D#	c #7B573A",
"E#	c #916949",
"F#	c #966B4A",
"G#	c #976C49",
"H#	c #8C6343",
"I#	c #745339",
"J#	c #80726A",
"K#	c #D3C9C0",
"L#	c #F8DEBE",
"M#	c #FFDEB5",
"N#	c #FFDDB3",
"O#	c #F7D6AE",
"P#	c #E0CBB5",
"Q#	c #E5E3E0",
"R#	c #D6D6D6",
"S#	c #898283",
"T#	c #8F694D",
"U#	c #956B48",
"V#	c #976C4B",
"W#	c #82593A",
"X#	c #7D5939",
"Y#	c #83746E",
"Z#	c #8B8785",
"`#	c #8B7D73",
" $	c #78583B",
".$	c #7A5538",
"+$	c #6F4D36",
"@$	c #5C3E29",
"#$	c #614129",
"$$	c #7B5538",
"%$	c #78563B",
"&$	c #7B583D",
"*$	c #A77A54",
"=$	c #B5835A",
"-$	c #9B7150",
";$	c #8B6548",
">$	c #C09B7E",
",$	c #E7CFB4",
"'$	c #FDDDB6",
")$	c #E0C4A4",
"!$	c #CDC4BC",
"~$	c #CACACA",
"{$	c #A7ACB0",
"]$	c #6E7B8A",
"^$	c #775A4D",
"/$	c #7C563B",
"($	c #7B5537",
"_$	c #AB7E59",
":$	c #B4855D",
"<$	c #A57656",
"[$	c #936E4C",
"}$	c #946D4C",
"|$	c #7A5437",
"1$	c #6D4C36",
"2$	c #593C29",
"3$	c #5C4029",
"4$	c #AA7956",
"5$	c #BB845E",
"6$	c #A17656",
"7$	c #896B53",
"8$	c #A98B72",
"9$	c #E3C4A5",
"0$	c #F9DAB3",
"a$	c #F7D5AC",
"b$	c #E0C5A7",
"c$	c #C2B9B0",
"d$	c #B1B1B2",
"e$	c #989DA2",
"f$	c #687B8F",
"g$	c #596E84",
"h$	c #72605A",
"i$	c #79573D",
"j$	c #AF7D5A",
"k$	c #BA845C",
"l$	c #A67550",
"m$	c #956D4D",
"n$	c #966C4B",
"o$	c #9D704F",
"p$	c #AB7B55",
"q$	c #9E7252",
"r$	c #8C6346",
"s$	c #876041",
"t$	c #775539",
"u$	c #936B49",
"v$	c #A37754",
"w$	c #A88D75",
"x$	c #C3AD94",
"y$	c #F8D9B3",
"z$	c #FEDDB2",
"A$	c #F5D1A6",
"B$	c #DAB995",
"C$	c #C3B9B2",
"D$	c #A3A6A8",
"E$	c #818B95",
"F$	c #62798F",
"G$	c #567794",
"H$	c #5B7791",
"I$	c #6D6F7A",
"J$	c #775B49",
"K$	c #76553A",
"L$	c #986E4B",
"M$	c #9F714B",
"N$	c #927D68",
"O$	c #8A8080",
"P$	c #817168",
"Q$	c #A47756",
"R$	c #AB7C57",
"S$	c #966C48",
"T$	c #926947",
"U$	c #7B553B",
"V$	c #7A573A",
"W$	c #795537",
"X$	c #8C6746",
"Y$	c #A17D5C",
"Z$	c #DABD9B",
"`$	c #FCDBB2",
" %	c #FCDAAF",
".%	c #F1CFA5",
"+%	c #CCAE8D",
"@%	c #8B8586",
"#%	c #68788C",
"$%	c #5C748C",
"%%	c #597691",
"&%	c #5A7C99",
"*%	c #5F819E",
"=%	c #61829F",
"-%	c #687E93",
";%	c #765E58",
">%	c #8F7B70",
",%	c #878789",
"'%	c #787171",
")%	c #976E4F",
"!%	c #9C6F4C",
"~%	c #956947",
"{%	c #896041",
"]%	c #845E42",
"^%	c #765739",
"/%	c #694931",
"(%	c #694833",
"_%	c #785941",
":%	c #90755C",
"<%	c #C6AC8A",
"[%	c #F6D4AA",
"}%	c #FCD7AB",
"|%	c #EAC393",
"1%	c #B89E86",
"2%	c #7B828E",
"3%	c #566F88",
"4%	c #455E7A",
"5%	c #475F7B",
"6%	c #527290",
"7%	c #5E809D",
"8%	c #6183A0",
"9%	c #63809B",
"0%	c #847A7A",
"a%	c #997356",
"b%	c #896243",
"c%	c #876042",
"d%	c #836A5B",
"e%	c #806E64",
"f%	c #76645A",
"g%	c #926B49",
"h%	c #79563C",
"i%	c #79553A",
"j%	c #76563A",
"k%	c #5E3E2C",
"l%	c #644C3C",
"m%	c #817160",
"n%	c #A69885",
"o%	c #BBA589",
"p%	c #EDCCA4",
"q%	c #ECC9A0",
"r%	c #CCAA85",
"s%	c #84858E",
"t%	c #5A758E",
"u%	c #716B74",
"v%	c #725B56",
"w%	c #665351",
"x%	c #55657B",
"y%	c #5C7C99",
"z%	c #61829E",
"A%	c #7B8290",
"B%	c #AE8369",
"C%	c #865D3E",
"D%	c #7C5537",
"E%	c #7B563A",
"F%	c #936A4B",
"G%	c #835B3E",
"H%	c #7E5A3E",
"I%	c #77553A",
"J%	c #815B3D",
"K%	c #805B3E",
"L%	c #6A4C3A",
"M%	c #827161",
"N%	c #AD9F8B",
"O%	c #A3917C",
"P%	c #A6886C",
"Q%	c #BDA790",
"R%	c #A39893",
"S%	c #818996",
"T%	c #627F99",
"U%	c #5D6E85",
"V%	c #927261",
"W%	c #7F624D",
"X%	c #6F594C",
"Y%	c #6D5F5D",
"Z%	c #5D6F86",
"`%	c #5F809C",
" &	c #6B829A",
".&	c #95807B",
"+&	c #7C5C45",
"@&	c #705036",
"#&	c #805B3D",
"$&	c #966C4C",
"%&	c #976C47",
"&&	c #8C6547",
"*&	c #77553E",
"=&	c #7D5B42",
"-&	c #916C51",
";&	c #6D584B",
">&	c #776A5C",
",&	c #A68E77",
"'&	c #B78A65",
")&	c #A67C63",
"!&	c #788291",
"~&	c #69849D",
"{&	c #62829F",
"]&	c #5D7D99",
"^&	c #646776",
"/&	c #8D6950",
"(&	c #776A63",
"_&	c #6C6B6A",
":&	c #917968",
"<&	c #96796F",
"[&	c #67798F",
"}&	c #5F809E",
"|&	c #63849F",
"1&	c #758194",
"2&	c #655855",
"3&	c #563D2B",
"4&	c #6F4D32",
"5&	c #946C4B",
"6&	c #926A47",
"7&	c #856346",
"8&	c #7A6251",
"9&	c #72635A",
"0&	c #77675D",
"a&	c #7B6E65",
"b&	c #5E5551",
"c&	c #675043",
"d&	c #A27857",
"e&	c #B4835D",
"f&	c #9D775F",
"g&	c #65768C",
"h&	c #5C7E9C",
"i&	c #5C7E9B",
"j&	c #5B7893",
"k&	c #766667",
"l&	c #916A49",
"m&	c #756A63",
"n&	c #6C6867",
"o&	c #957760",
"p&	c #7D6E6F",
"q&	c #57738E",
"r&	c #5E809E",
"s&	c #68839D",
"t&	c #6B7583",
"u&	c #634F48",
"v&	c #714E33",
"w&	c #7A573B",
"x&	c #906848",
"y&	c #725136",
"z&	c #5A3F2A",
"A&	c #6A5547",
"B&	c #726760",
"C&	c #565352",
"D&	c #585858",
"E&	c #545454",
"F&	c #615854",
"G&	c #725544",
"H&	c #916645",
"I&	c #9A6C47",
"J&	c #795945",
"K&	c #4A5161",
"L&	c #4B647E",
"M&	c #47637F",
"N&	c #4C5F76",
"O&	c #7C645B",
"P&	c #936C46",
"Q&	c #7F5B3E",
"R&	c #886346",
"S&	c #956D4B",
"T&	c #936E56",
"U&	c #736D79",
"V&	c #597794",
"W&	c #6284A1",
"X&	c #688199",
"Y&	c #7B6F6F",
"Z&	c #806049",
"`&	c #775437",
" *	c #705139",
".*	c #5F4637",
"+*	c #70635D",
"@*	c #595553",
"#*	c #4E4E4E",
"$*	c #444444",
"%*	c #4F4D4A",
"&*	c #6D6059",
"**	c #88644A",
"=*	c #78553E",
"-*	c #573A2E",
";*	c #513A38",
">*	c #4C3839",
",*	c #503935",
"'*	c #8A644B",
")*	c #815B41",
"!*	c #8A6345",
"~*	c #996C49",
"{*	c #A0714C",
"]*	c #9F7863",
"^*	c #626A7D",
"/*	c #577893",
"(*	c #5F7E9A",
"_*	c #5F7A94",
":*	c #6C6A73",
"<*	c #7F5F4A",
"[*	c #77563B",
"}*	c #785538",
"|*	c #6E513D",
"1*	c #765C4D",
"2*	c #726C69",
"3*	c #555555",
"4*	c #4F4F4F",
"5*	c #4B4B4B",
"6*	c #474747",
"7*	c #56514F",
"8*	c #76665E",
"9*	c #7E5A43",
"0*	c #6C4931",
"a*	c #5D381E",
"b*	c #552E13",
"c*	c #542E14",
"d*	c #724C31",
"e*	c #7B543B",
"f*	c #81583D",
"g*	c #664530",
"h*	c #614029",
"i*	c #805A3F",
"j*	c #9A6C49",
"k*	c #9A6D49",
"l*	c #986E4E",
"m*	c #7F6459",
"n*	c #505868",
"o*	c #546074",
"p*	c #555867",
"q*	c #604A46",
"r*	c #73503A",
"s*	c #5F4130",
"t*	c #5E3E2A",
"u*	c #846C5F",
"v*	c #7D7977",
"w*	c #656565",
"x*	c #5A5A5A",
"y*	c #51504F",
"z*	c #55514F",
"A*	c #736158",
"B*	c #7A5C49",
"C*	c #76533B",
"D*	c #6C4A32",
"E*	c #5E3A21",
"F*	c #583319",
"G*	c #573318",
"H*	c #6D472B",
"I*	c #966A48",
"J*	c #7C563C",
"K*	c #7B563B",
"L*	c #60422E",
"M*	c #593C28",
"N*	c #7B5941",
"O*	c #8C6548",
"P*	c #5E4235",
"Q*	c #553932",
"R*	c #56372A",
"S*	c #5F3A23",
"T*	c #65442D",
"U*	c #573E2C",
"V*	c #825F43",
"W*	c #7E5F4B",
"X*	c #8A7A72",
"Y*	c #8B827E",
"Z*	c #837A74",
"`*	c #7F6A5D",
" =	c #876A54",
".=	c #795B46",
"+=	c #7C573A",
"@=	c #624026",
"#=	c #5A3922",
"$=	c #68462E",
"%=	c #936949",
"&=	c #A07552",
"*=	c #A07553",
"==	c #A2744F",
"-=	c #6A4D36",
";=	c #715037",
">=	c #836141",
",=	c #836043",
"'=	c #7D6144",
")=	c #73645B",
"!=	c #5B3B2A",
"~=	c #593317",
"{=	c #5B351A",
"]=	c #5E3B22",
"^=	c #6A4830",
"/=	c #7E5B3E",
"(=	c #7B563C",
"_=	c #946F55",
":=	c #B48666",
"<=	c #B38563",
"[=	c #B5845F",
"}=	c #7F5C3C",
"|=	c #785435",
"1=	c #8D6749",
"2=	c #835F40",
"3=	c #725035",
"4=	c #966A47",
"5=	c #996D4A",
"6=	c #B7865F",
"7=	c #B98257",
"8=	c #765337",
"9=	c #5A3D29",
"0=	c #6C4B32",
"a=	c #775536",
"b=	c #795A47",
"c=	c #7E7B79",
"d=	c #62524A",
"e=	c #59351D",
"f=	c #5A361E",
"g=	c #634129",
"h=	c #714F35",
"i=	c #916747",
"j=	c #876144",
"k=	c #714D33",
"l=	c #8C6447",
"m=	c #AC7D58",
"n=	c #AC7A55",
"o=	c #7E583D",
"p=	c #866143",
"q=	c #8D6444",
"r=	c #886344",
"s=	c #846043",
"t=	c #886145",
"u=	c #986C49",
"v=	c #9A6D4A",
"w=	c #B5855E",
"x=	c #B9855B",
"y=	c #7E593D",
"z=	c #664731",
"A=	c #7F5C40",
"B=	c #916946",
"C=	c #916948",
"D=	c #926B4E",
"E=	c #8D7B70",
"F=	c #7B6A60",
"G=	c #65462F",
"H=	c #66452D",
"I=	c #765539",
"  . . + @ # $ % & * * = - ; > , ' ) ! ~ # { ] ^ / ( _ : < [ } | ",
"1 # # 2 3 4 5 6 7 8 9 0 a b c d e f g h i j k l m m n o p q r s ",
"t u u v w x y z A B C D E F G H I J K L M N O P Q Q R S T U V W ",
"X Y Y Z `  .n ..+.@.#.$.%.&.*.=.-.;.>.,.'.).!.~.Y Y {.].^./.(._.",
":.<.[.Z }.|.y 1.2.3.4.5.6.7.8.-.9.0.0.a.b.c.d.{.[.[.{.e.f.g.h.i.",
"j.k.k.l.m.n.o.p.q.r.s.t.-.u.v.w.v.x.y.z.A.B.C.D.k.k.E.F.G.H.I.J.",
"K.L.L.M.N.O.P.Q.R.S.T.U.V.W.X.Y.Z.`. +.+++@+#+$+%+&+*+=+-+;+>+,+",
"'+)+)+!+~+{+n ]+^+/+(+_+:+<+[+}+|+1+2+3+4+5+6+7+8+9+H.0+a+b+c+E.",
"d+P.e+f+g+h+i+3 j+k+l+m+n+o+p+q+r+s+t+u+v+w+x+y+z+A+;+B+C+D+E+F+",
"G+H+I+J+K+L+M+2 N+O+P+Q+R+S+T+U+V+W+X+Y+Z+`+ @.@+@@@#@$@%@&@*@=@",
"-@;@>@,@'@)@!@~@{@]@^@/@(@_@:@<@[@}@|@1@2@3@4@5@6@7@8@9@0@a@b@c@",
"d@e@< f@g@q h@i@|.j@k@l@m@n@o@p@q@r@s@t@u@v@w@x@y@z@A@B@C@D@E@F@",
"m i+G@H@I@J@K@L@M@~@N+N@O@P@Q@R@S@T@U@V@W@X@Y@Z@`@ #.#+#@###$#%#",
"# &## P.*#=#-#_ i+;#&#>#,#'#)#!#~#{#]#^#/#(#_#:#<#[#}#|#1#2#3#4#",
"5#6#7#8#9#0#a#b#c#d#e#f#g#h#i#j#k#l#m#n#o#p#q#r#s#t#& u#v#w#x#y#",
"z#A#B#C#9#9#D#E#F#l.G#H# .I#J#K#L#M#N#O#P#Q#R#S#T#U#V#W#X#Y#Z#`#",
" $.$+$@$#$$$%$&$ .*$=$-$%$;$>$,$'$m#O#)$!$~${$]$^$/$($_$:$<$[$}$",
"|$i+1$2$3$i@m m n 4$5$6$7$8$9$0$<@a$b$c$d$e$f$g$h$i$y+j$k$l$m$n$",
"o$p$q$r$s$( y m t$u$v$w$x$Q+y$z$A$B$C$D$E$F$G$H$I$J$K$L$M$N$O$P$",
"Q$E+R$S$T$U$3#V$W$X$Y$Z$[@`$ %.%+%@%#%$%%%&%*%=%-%;%] * A#>%,%'%",
")%!%~%{%]%M@^%/%(%_%:%<%[%}%|%1%2%3%4%5%6%7%8%8%9%0%a%b%c%d%e%f%",
"g%h%{+m i%K$j%k%l%m%n%o%p%q%r%s%t%u%v%w%x%y%8%8%z%A%B%C%.$$$D%E%",
"F%G%H%I%n J%K%L%M%N%O%P%Q%R%S%T%U%V%W%X%Y%Z%`%8%8% &.&+&@&2 m #&",
"$&%&&&*&=&m.-&;&>&,&'&)&!&~&{&]&^&/&(&_&:&<&[&}&8%|&1&2&3&4&m 5&",
"5#6&7&8&9&0&a&b&c&d&e&f&g&h&i&j&k&l&m&n&o&j$p&q&r&8%s&t&u&v&w&x&",
"y&z&A&B&C&D&E&F&G&H&I&J&K&L&M&N&O&P&Q&i@R&S&T&U&V&*%W&X&Y&Z&# `&",
" *.*+*@*#*E&$*%*&***n$=*-*;*>*,*'*V#)*g+!*~*{*]*^*/*(*_*:*<*[*}*",
"|*1*2*3*4*5*6*7*8*9*{@0*a*b*c*d*e*f*g*h*i*j*k*l*m*n*o*p*q*r*s*t*",
"I@u*v*w*x*y*z*A*B*C*D*E*F*G*H*I*J*K*L*M*N*$+n$n$O*P*Q*R*S*T*U*M*",
"V*W*X*Y*Z*`* =.=P.~ +=@=#=$=%=&=*===-=2$;=>=,=,='=)=!=~={=]=^=/=",
"..(=_=:=<=[=:$}=|=1=%=2=3=(=4=5=6=7=8=9=0=a=m m b=c=d=e=f=g=h=i=",
"j=k=l=` m=m=n=o=1 p=q=r=s=t=u=v=w=x=y=z=A=B=C=* D=E=F=G=H=I=}*%@"};
